<svg xmlns="http://www.w3.org/2000/svg" xmlns:xlink="http://www.w3.org/1999/xlink" width="329.77" height="508.22" viewBox="0 0 329.77 508.22"><defs><clipPath id="clip-path" transform="translate(-82.47 40.76)"><rect width="500" height="500" style="fill:none"/></clipPath></defs><g style="isolation:isolate"><g id="Layer_2" data-name="Layer 2"><g id="OBJECTS"><text transform="translate(89.29 472.67)" style="font-size:40px;fill:#ff4800;font-family:Poppins-Medium, Poppins;font-weight:500">WoooW</text><text transform="translate(88.57 497.92)" style="font-size:18px;fill:#ff4800;font-family:Poppins-Regular, Poppins">Something is bad</text><g style="clip-path:url(#clip-path)"><path d="M219.77,50.27l-123,313.15S169.7,397.73,403.18,366l-122-316.77s-6.29,2.34-30.39,3C228.25,52.83,219.77,50.27,219.77,50.27Z" transform="translate(-82.47 40.76)" style="fill:#e89f2b;opacity:0.15"/><g style="opacity:0.7000000000000001"><path d="M410.34,367.35c0,5.94-72.21,10.75-161.29,10.75S87.76,373.29,87.76,367.35,160,356.59,249.05,356.59,410.34,361.41,410.34,367.35Z" transform="translate(-82.47 40.76)" style="fill:#e89f2b"/></g><circle cx="330.88" cy="358.97" r="9.55" transform="translate(-202.76 586.24) rotate(-69.79)" style="fill:#e89f2b"/><path d="M330.85,302.48a9.55,9.55,0,1,1,9.54-9.55A9.55,9.55,0,0,1,330.85,302.48Z" transform="translate(-82.47 40.76)" style="fill:#e89f2b"/><path d="M388.25,326.18c3.16.47,6.45.85,9.18,2.66a12,12,0,0,1,3.69,3.82c.77,1.29.84,2.35,2.16,3.16a1.19,1.19,0,0,0,1.71-.7c1.32-3.29-3.59-7.39-6.06-8.84-3.29-1.93-7.38-2.91-10.78-.81-.25.16-.25.66.1.71Z" transform="translate(-82.47 40.76)" style="fill:#d18c2b"/><path d="M399.3,338.1c3.13,8,15.57,3.15,12.44-4.86s-15.57-3.15-12.44,4.86Z" transform="translate(-82.47 40.76)" style="fill:#dc432b"/><path d="M236.62,370.36a351.71,351.71,0,0,1-36.29,1.18c-12.1-.3-24.15-2.86-36.17-3a1.09,1.09,0,0,0-.29,2.13c11.34,3.56,24.67,3.53,36.46,3.75a222.08,222.08,0,0,0,36.53-2.28c1-.15.8-1.91-.24-1.83Z" transform="translate(-82.47 40.76)" style="fill:#dc432b"/><path d="M110,361.93c14.89.92,29.73,1,44.65.79,13.48-.21,28.48.9,41.66-1.93,1-.22.67-1.58-.22-1.68-7.42-.79-14.87.38-22.31.55q-10.36.25-20.73.32c-14.35.11-28.7-.09-43.05-.06a1,1,0,0,0,0,2Z" transform="translate(-82.47 40.76)" style="fill:#dc432b"/><polygon points="162.08 345.73 162.04 387.34 156.59 387.34 147.34 366.52 158.26 345.73 162.08 345.73" style="fill:#f1efe8"/><rect x="193.71" y="275.25" width="94.85" height="81.43" rx="7.89" transform="translate(474.86 115.9) rotate(90.05)" style="fill:#dc432b"/><rect x="190.35" y="299.86" width="59.19" height="12.16" rx="2.8" transform="translate(508.5 280.98) rotate(115.67)" style="fill:#e89f2b"/><path d="M225.58,285.19c-2.07,4.33,4.65,7.57,6.73,3.23s-4.64-7.56-6.73-3.23Z" transform="translate(-82.47 40.76)"/><path d="M218.94,299c-2.08,4.32,4.64,7.56,6.72,3.23s-4.64-7.57-6.72-3.23Z" transform="translate(-82.47 40.76)"/><path d="M212.69,312c-2.08,4.32,4.64,7.56,6.73,3.23s-4.64-7.57-6.73-3.23Z" transform="translate(-82.47 40.76)"/><path d="M207.27,323.31c-2.08,4.33,4.64,7.57,6.72,3.23s-4.64-7.56-6.72-3.23Z" transform="translate(-82.47 40.76)"/><path d="M254.91,363.43h1.37L257,357l.84-.08,2,6.16c.45-.08.89-.17,1.33-.28l-.68-6.44.8-.26,3.23,5.62,1.25-.55-2-6.17c.25-.13.49-.27.73-.42l4.32,4.82c.38-.25.75-.52,1.11-.8L266.62,353l.62-.56,5.23,3.82c.32-.33.62-.67.92-1l-4.34-4.81c.17-.23.34-.45.5-.68l5.91,2.64c.24-.38.47-.77.68-1.17l-5.24-3.81c.12-.25.24-.51.34-.77l6.34,1.36c.15-.42.29-.86.42-1.29l-5.92-2.64c.07-.27.12-.54.18-.82h6.47c.06-.44.11-.9.15-1.35l-6.34-1.35v-.42c0-.14,0-.28,0-.42l6.34-1.33c0-.46-.08-.91-.14-1.36h-6.48c-.05-.28-.11-.56-.17-.83l5.92-2.62c-.12-.44-.26-.87-.41-1.3l-6.34,1.35c-.11-.26-.22-.51-.34-.77l5.25-3.8q-.33-.6-.69-1.17l-5.92,2.63c-.15-.23-.32-.45-.49-.68l4.34-4.8q-.44-.53-.9-1l-5.25,3.81-.62-.56,3.25-5.6c-.36-.28-.72-.55-1.1-.81l-4.33,4.82c-.24-.15-.48-.29-.73-.42l2-6.16c-.41-.2-.83-.38-1.25-.56l-3.24,5.62c-.26-.1-.53-.19-.8-.27l.69-6.44c-.44-.1-.88-.2-1.33-.28l-2,6.16-.84-.09-.66-6.44H255l-.68,6.44c-.28,0-.56.05-.83.09l-2-6.17c-.45.08-.9.18-1.33.28l.67,6.44-.8.26-3.23-5.61c-.42.17-.83.35-1.24.55l2,6.16-.72.42-4.33-4.82c-.37.26-.74.52-1.1.8l3.24,5.61-.63.56L238.76,324c-.31.33-.62.67-.91,1l4.34,4.82c-.18.22-.34.45-.5.68l-5.91-2.65c-.24.38-.47.78-.69,1.18l5.24,3.8c-.12.26-.23.51-.34.77l-6.33-1.36c-.16.43-.3.86-.43,1.3l5.92,2.63c-.06.27-.12.55-.17.82H232.5c-.06.45-.11.9-.14,1.35l6.34,1.35c0,.14,0,.28,0,.42s0,.28,0,.42l-6.35,1.33c0,.46.09.91.15,1.36H239c.05.27.11.55.18.82l-5.93,2.62c.13.44.27.87.42,1.3L240,346.6c.11.26.22.52.34.77l-5.25,3.8c.22.4.44.79.68,1.18l5.92-2.64c.16.23.32.46.5.68l-4.35,4.8c.29.35.6.69.91,1L244,352.4l.62.56-3.25,5.61,1.1.8,4.34-4.82.73.43-2,6.16c.41.19.82.38,1.24.55l3.24-5.61.8.26-.69,6.44c.44.11.88.2,1.33.28l2-6.16q.42.06.84.09Zm3.28-23.31a2.54,2.54,0,1,1-2.53-2.54A2.54,2.54,0,0,1,258.19,340.12Zm-2.52-12.81a12.82,12.82,0,0,1,12.72,11.4h-6.82a6.08,6.08,0,0,0-5.91-4.66,6.18,6.18,0,0,0-1.73.25l-3.4-5.91A12.75,12.75,0,0,1,255.67,327.31ZM242.85,340.1a12.77,12.77,0,0,1,5.23-10.3l3.4,5.9a6.08,6.08,0,0,0,0,8.82l-3.41,5.9A12.8,12.8,0,0,1,242.85,340.1Zm7.66,11.74,3.41-5.9a5.84,5.84,0,0,0,1.73.25,6.07,6.07,0,0,0,5.92-4.65h6.81a12.8,12.8,0,0,1-17.87,10.29Z" transform="translate(-82.47 40.76)" style="fill:#e89f2b"/><path d="M271.69,340.13a16.07,16.07,0,1,0-16.09,16.05A16.08,16.08,0,0,0,271.69,340.13Zm-16,2.52a2.54,2.54,0,1,1,2.54-2.53A2.54,2.54,0,0,1,255.65,342.65Zm-5.12-14.27a12.81,12.81,0,0,1,17.86,10.33h-6.82a6.08,6.08,0,0,0-5.91-4.66,6.18,6.18,0,0,0-1.73.25Zm-7.68,11.72a12.77,12.77,0,0,1,5.23-10.3l3.4,5.9a6.08,6.08,0,0,0,0,8.82l-3.41,5.9A12.8,12.8,0,0,1,242.85,340.1Zm11.07,5.84a5.84,5.84,0,0,0,1.73.25,6.07,6.07,0,0,0,5.92-4.65h6.81a12.8,12.8,0,0,1-17.87,10.29Z" transform="translate(-82.47 40.76)" style="fill:#e89f2b"/><path d="M270.38,340.13a14.76,14.76,0,1,0-14.78,14.74A14.77,14.77,0,0,0,270.38,340.13Zm-29,0a14.24,14.24,0,1,1,14.22,14.26A14.25,14.25,0,0,1,241.38,340.1Z" transform="translate(-82.47 40.76)" style="fill:#d9d9d9"/><g style="mix-blend-mode:multiply"><path d="M253.12,340.11a2.54,2.54,0,1,1,2.53,2.54A2.54,2.54,0,0,1,253.12,340.11Zm2.55-12.8a12.82,12.82,0,0,1,12.72,11.4h-6.82a6.08,6.08,0,0,0-5.91-4.66,6.18,6.18,0,0,0-1.73.25l-3.4-5.91A12.75,12.75,0,0,1,255.67,327.31ZM242.85,340.1a12.77,12.77,0,0,1,5.23-10.3l3.4,5.9a6.08,6.08,0,0,0,0,8.82l-3.41,5.9A12.8,12.8,0,0,1,242.85,340.1Zm7.66,11.74,3.41-5.9a5.84,5.84,0,0,0,1.73.25,6.07,6.07,0,0,0,5.92-4.65h6.81a12.8,12.8,0,0,1-17.87,10.29Z" transform="translate(-82.47 40.76)" style="fill:#fff"/></g><path d="M245.78,326.63a0,0,0,1,0,0,0s0,0,0,0Z" transform="translate(-82.47 40.76)" style="fill:#f1efe8"/><path d="M245.78,328a0,0,0,1,0,0,0s0,0,0,0Z" transform="translate(-82.47 40.76)" style="fill:#f1efe8"/><path d="M394.67,323.21c0-10.43-11.42-18.88-25.49-18.87l0,37.78C383.27,342.11,394.67,333.65,394.67,323.21Z" transform="translate(-82.47 40.76)" style="fill:#e89f2b"/><rect x="298.89" y="282.27" width="70.28" height="91.85" rx="9.82" transform="translate(579.55 34.73) rotate(89.97)" style="fill:#dc432b"/><rect x="279.52" y="264.33" width="5.78" height="17.88" rx="1.33" transform="translate(572.71 438.41) rotate(154.4)" style="fill:#5a9eaa"/><rect x="287.01" y="240.79" width="7.26" height="32.38" rx="1.67" transform="translate(1.46 -30.55) rotate(16.32)" style="fill:#488c93"/><rect x="281.5" y="216.44" width="7.26" height="20.03" rx="1.67" transform="translate(-147.23 368.02) rotate(-54.53)" style="fill:#488c93"/><path d="M298.82,237.4a4.1,4.1,0,1,0-4.5,3.65A4.1,4.1,0,0,0,298.82,237.4Z" transform="translate(-82.47 40.76)" style="fill:#dc432b"/><rect x="282.06" y="359.25" width="5.78" height="17.88" rx="1.33" transform="translate(-179.21 675.55) rotate(-87.2)" style="fill:#5a9eaa"/><rect x="180.75" y="328.2" width="7.26" height="32.38" rx="1.67" transform="translate(-234.78 583.25) rotate(-92.31)" style="fill:#488c93"/><rect x="158.84" y="314.03" width="7.26" height="20.03" rx="1.67" transform="translate(-130.27 69.53) rotate(-8.83)" style="fill:#488c93"/><path d="M169.16,334.54a4.11,4.11,0,1,1-5.75.79A4.11,4.11,0,0,1,169.16,334.54Z" transform="translate(-82.47 40.76)" style="fill:#dc432b"/><polygon points="297.11 400.87 310.23 396.2 315.73 404.97 311.93 407.72 308.84 402.51 302.2 404.85 302.97 410.46 298.31 412.21 297.11 400.87" style="fill:#dc432b"/><rect x="170.7" y="350.56" width="12.53" height="21.97" rx="1.64" transform="translate(-13.76 14.61) rotate(10.48)" style="fill:#5a9eaa"/><path d="M177.71,357.14a15.49,15.49,0,0,0-18.06,12.42l30.48,5.63A15.5,15.5,0,0,0,177.71,357.14Z" transform="translate(-82.47 40.76)" style="fill:#d18c2b"/><rect x="141.47" y="336.28" width="11.51" height="21.97" rx="1.64" transform="translate(398.2 564.35) rotate(140.84)" style="fill:#488c93"/><rect x="127.5" y="321.81" width="15.87" height="21.97" rx="1.64" transform="translate(368.13 546.09) rotate(140.84)" style="fill:#5a9eaa"/><path d="M119.4,354.35a15.51,15.51,0,0,0-16.59,14.33l30.92,2.25A15.5,15.5,0,0,0,119.4,354.35Z" transform="translate(-82.47 40.76)" style="fill:#d18c2b"/><path d="M333,307.52c1.5,2.58,4.64,4.38,7,6.11,2.78,2,5.58,4.61,8.79,5.85,1.56.6,2.55-1.59,1.54-2.66-2.21-2.34-5.53-3.86-8.26-5.56s-5.53-4-8.61-4.4a.45.45,0,0,0-.5.66Z" transform="translate(-82.47 40.76)"/><path d="M336.08,321.11c2.9-1.13,5.21-3.82,7.37-6,2-2,5.71-4.54,6.28-7.41A1.41,1.41,0,0,0,348,306c-2.89.65-5.26,4.37-7.25,6.44S336,317,334.92,320a.94.94,0,0,0,1.16,1.16Z" transform="translate(-82.47 40.76)"/><path d="M333,344.73c1.5,2.59,4.64,4.39,7,6.11,2.78,2,5.58,4.61,8.79,5.85,1.56.61,2.55-1.59,1.54-2.66-2.21-2.34-5.53-3.86-8.26-5.56s-5.53-4-8.61-4.4a.45.45,0,0,0-.5.66Z" transform="translate(-82.47 40.76)"/><path d="M336.08,358.33c2.9-1.14,5.21-3.83,7.37-6,2-2,5.71-4.54,6.28-7.41A1.41,1.41,0,0,0,348,343.2c-2.89.64-5.26,4.36-7.25,6.44s-4.8,4.6-5.85,7.53a1,1,0,0,0,1.16,1.16Z" transform="translate(-82.47 40.76)"/><path d="M252.7,251l-3.3-1.63c.75-2.38,1.46-4.73,2.23-7.06a2,2,0,0,1,.77-.86,9,9,0,0,0,2.76-3.48c3.41-6.94,6.9-13.85,10.37-20.76.18-.35.43-.67.82-1.26-1.19-.51-2.2-.87-3.13-1.38a1.31,1.31,0,0,1-.36-1.09,6.51,6.51,0,0,1,.6-1.29c.25-.6.58-.75,1.28-.63a1.76,1.76,0,0,0,1.54-.61,1.85,1.85,0,0,0-.51-1.59.93.93,0,0,1-.22-1.32c3.08-6.13,6.14-12.27,9.23-18.4a4.26,4.26,0,0,1,3.68-2.45,6.83,6.83,0,0,1,6.65,3.33,4.38,4.38,0,0,1,.19,4.54q-4.57,9.09-9.11,18.2c-.31.61-.59.87-1.36.68a1.72,1.72,0,0,0-1.48.56,1.42,1.42,0,0,0,.26,1.42c.92.65.67,1.26.23,2-.28.47-.52,1-1,1.79l-3.43-2.36c-.71,1.48-1.19,2.56-1.72,3.62-3.28,6.56-6.58,13.12-9.84,19.69a5.07,5.07,0,0,0-.55,2.14,5.52,5.52,0,0,1-1.33,3.68C254.84,247.87,253.81,249.42,252.7,251Zm17.6-42.25a6.67,6.67,0,0,0,.73-1c2.52-5,5-10,7.51-15,.12-.25.35-.54.31-.76-.09-.46-.23-1.13-.55-1.27a2.2,2.2,0,0,0-1.47.23c-.23.09-.34.51-.48.79q-3.71,7.37-7.4,14.75a4.42,4.42,0,0,0-.38.87C268.37,208.23,269.18,209,270.3,208.7Zm4.2,2.12a5.57,5.57,0,0,0,.7-.94q3.82-7.57,7.61-15.18a2.68,2.68,0,0,0,.3-.77,1.13,1.13,0,0,0-1.58-1.25,2.38,2.38,0,0,0-.9,1c-2.52,5-5,10-7.51,15a3.08,3.08,0,0,0-.34.88A1.24,1.24,0,0,0,274.5,210.82Z" transform="translate(-82.47 40.76)"/><polygon points="190.68 266.77 198.3 255.12 191.08 247.7 187.51 250.75 191.84 254.97 188.01 260.87 182.73 258.81 179.93 262.92 190.68 266.77" style="fill:#dc432b"/><rect x="134.93" y="306.23" width="48.6" height="6.08" rx="1.09" style="fill:#bc2f20"/><path d="M243.73,268.86a28.42,28.42,0,0,0-18.41-35.45c-1.53-.49-2.19,1.91-.67,2.39a25.94,25.94,0,0,1,16.69,32.4c-.49,1.53,1.9,2.18,2.39.66Z" transform="translate(-82.47 40.76)"/><path d="M249.05,262a1.24,1.24,0,0,0,0-2.48,1.24,1.24,0,0,0,0,2.48Z" transform="translate(-82.47 40.76)"/><path d="M232.91,250.38a1.24,1.24,0,0,0,0-2.48,1.24,1.24,0,0,0,0,2.48Z" transform="translate(-82.47 40.76)"/><path d="M224.47,250.85a4.47,4.47,0,0,1-3.6-1.72,3.79,3.79,0,0,1-.64-1.45l-.17,0a3.57,3.57,0,0,1-2.54-2.93,5.14,5.14,0,0,1,0-1.87,4,4,0,0,1-.8-.27,3.56,3.56,0,0,1-1.92-2.19,3.88,3.88,0,0,1,0-1.95,5.19,5.19,0,0,1-2.49-2.38,3.77,3.77,0,0,1,0-3.46.62.62,0,0,1,1.12.54,2.59,2.59,0,0,0,0,2.37,3.92,3.92,0,0,0,1.77,1.74,10.43,10.43,0,0,1,.68-1.25,4.29,4.29,0,0,1,3.74-1.61,1.68,1.68,0,0,1,1.49,1.12,1.83,1.83,0,0,1-.51,1.78,6,6,0,0,1-4.6,1.49,2.73,2.73,0,0,0,0,1.25,2.41,2.41,0,0,0,1.24,1.42,3.33,3.33,0,0,0,.63.21c.07-.19.15-.39.24-.59a4,4,0,0,1,2.2-2.34,2.35,2.35,0,0,1,2.12.39,1.75,1.75,0,0,1,.69,1.52,2.33,2.33,0,0,1-1.81,1.9,8.11,8.11,0,0,1-2.54.45,4,4,0,0,0-.06,1.52,2.42,2.42,0,0,0,1.43,1.87c0-.11,0-.23.05-.34a3.66,3.66,0,0,1,1.58-2.44,2.13,2.13,0,0,1,2.87.26,2,2,0,0,1-.18,2.33,4,4,0,0,1-1.68,1.08,8.23,8.23,0,0,1-1.3.39,2.42,2.42,0,0,0,.36.74,3.36,3.36,0,0,0,4,.91.62.62,0,0,1,.82.31.61.61,0,0,1-.3.82A4.48,4.48,0,0,1,224.47,250.85Zm-1.26-6.44a1.46,1.46,0,0,0-.74.23,2.43,2.43,0,0,0-1,1.63.68.68,0,0,0,0,.14,6.05,6.05,0,0,0,.94-.3,2.75,2.75,0,0,0,1.17-.71.72.72,0,0,0,.13-.81A.55.55,0,0,0,223.21,244.41Zm-2.2-4.54a.77.77,0,0,0-.27,0,2.8,2.8,0,0,0-1.47,1.67l-.06.15a7.32,7.32,0,0,0,1.74-.37c.46-.15.93-.46,1-.83a.51.51,0,0,0-.22-.43A1.14,1.14,0,0,0,221,239.87Zm-4.6-2.3a4.81,4.81,0,0,0,3.27-1.13c.3-.31.25-.51.23-.57s-.2-.21-.47-.25a3,3,0,0,0-2.52,1A8.42,8.42,0,0,0,216.41,237.57Z" transform="translate(-82.47 40.76)"/><path d="M172.21,293.35a.63.63,0,0,1-.46-.2,5,5,0,0,1-.45-6.18,4.08,4.08,0,0,1,1.34-1.17l0-.23a3.89,3.89,0,0,1,2.21-3.61,5.52,5.52,0,0,1,2-.59,4.68,4.68,0,0,1,0-1,4,4,0,0,1,1.66-2.72,4.21,4.21,0,0,1,2.07-.69,5.72,5.72,0,0,1,1.67-3.46,4.17,4.17,0,0,1,3.61-1.16.62.62,0,0,1,.52.71.6.6,0,0,1-.71.52,2.93,2.93,0,0,0-2.56.83,4.42,4.42,0,0,0-1.28,2.57,9.75,9.75,0,0,1,1.62.31,4.66,4.66,0,0,1,2.9,3.36,1.79,1.79,0,0,1-.65,1.89,2,2,0,0,1-2,0,6.63,6.63,0,0,1-3.1-4.38,3,3,0,0,0-1.4.48,2.72,2.72,0,0,0-1.12,1.83,3.75,3.75,0,0,0,0,.82l.75.06a4.31,4.31,0,0,1,3.18,1.51,2.54,2.54,0,0,1,.28,2.32,1.88,1.88,0,0,1-1.33,1.2,2.58,2.58,0,0,1-2.55-1.26,9.19,9.19,0,0,1-1.33-2.58,4.49,4.49,0,0,0-1.71.47,2.71,2.71,0,0,0-1.54,2.29,3.25,3.25,0,0,1,.45-.08,4,4,0,0,1,3.07.83,2.31,2.31,0,0,1,.67,3,2.1,2.1,0,0,1-2.45.57,4.3,4.3,0,0,1-1.67-1.4A8.22,8.22,0,0,1,173,287a3.05,3.05,0,0,0-.74.69,3.81,3.81,0,0,0,.37,4.61.63.63,0,0,1,0,.88A.61.61,0,0,1,172.21,293.35Zm2-6.81a6.41,6.41,0,0,0,.68,1,3.16,3.16,0,0,0,1.18,1,.9.9,0,0,0,1-.16c.25-.34,0-1-.46-1.34a2.78,2.78,0,0,0-2.13-.56Zm4.22-3.94a8.41,8.41,0,0,0,1,1.84c.3.42.82.87,1.27.77a.63.63,0,0,0,.44-.43,1.27,1.27,0,0,0-.13-1.14,3.21,3.21,0,0,0-2.31-1Zm3.48-4.36a5.47,5.47,0,0,0,2.35,3.23c.47.23.69.09.76,0s.19-.32.13-.65a3.44,3.44,0,0,0-2-2.37A9.26,9.26,0,0,0,181.9,278.24Z" transform="translate(-82.47 40.76)"/><path d="M255,264.44a5.59,5.59,0,0,1-2.37-.51.62.62,0,0,1-.3-.82.64.64,0,0,1,.83-.31,4.43,4.43,0,0,0,5.31-1.23,3.39,3.39,0,0,0,.54-1.19,8.64,8.64,0,0,1-1.81-.53,4.78,4.78,0,0,1-2.09-1.32,2.33,2.33,0,0,1-.22-2.78,2.56,2.56,0,0,1,3.44-.3,4.58,4.58,0,0,1,2,3,4.86,4.86,0,0,1,.08.64,3.22,3.22,0,0,0,2.16-2.6,5.35,5.35,0,0,0-.11-2.16,11.19,11.19,0,0,1-3.34-.56,2.87,2.87,0,0,1-2.21-2.29,2.05,2.05,0,0,1,.83-1.79,2.8,2.8,0,0,1,2.55-.48,4.87,4.87,0,0,1,2.71,2.91c.14.31.26.6.36.89a5,5,0,0,0,1-.31,3.23,3.23,0,0,0,1.68-1.93,3.72,3.72,0,0,0,0-1.85,7.57,7.57,0,0,1-5.91-1.84,2.13,2.13,0,0,1-.62-2.09,2,2,0,0,1,1.78-1.33,5.27,5.27,0,0,1,4.61,2,10.78,10.78,0,0,1,.94,1.75,5.31,5.31,0,0,0,2.52-2.39,3.53,3.53,0,0,0,0-3.2.62.62,0,0,1,.28-.83.63.63,0,0,1,.83.29,4.7,4.7,0,0,1,0,4.29,6.48,6.48,0,0,1-3.24,3,4.89,4.89,0,0,1,0,2.55,4.55,4.55,0,0,1-2.36,2.71,5.58,5.58,0,0,1-1.16.37,6.63,6.63,0,0,1,.08,2.5,4.41,4.41,0,0,1-3.13,3.61,1.91,1.91,0,0,1-.33.06,4.65,4.65,0,0,1-.81,1.91A5.54,5.54,0,0,1,255,264.44Zm1.62-8.26a.86.86,0,0,0-.73.3,1.13,1.13,0,0,0,.18,1.26,3.86,3.86,0,0,0,1.58,1,7.22,7.22,0,0,0,1.46.43,2.18,2.18,0,0,0-.05-.43,3.34,3.34,0,0,0-1.4-2.2A2,2,0,0,0,256.63,256.18Zm2.82-5.83a1.6,1.6,0,0,0-1,.34.82.82,0,0,0-.36.7c.05.59.76,1,1.36,1.22a9.69,9.69,0,0,0,2.56.5c-.06-.15-.13-.3-.2-.46a3.74,3.74,0,0,0-2-2.24A1.29,1.29,0,0,0,259.45,250.35Zm2.32-5.46a1.88,1.88,0,0,0-.34,0c-.42.05-.67.21-.75.46,0,.08-.11.4.34.89a6.41,6.41,0,0,0,4.59,1.48,10,10,0,0,0-.77-1.41A4.11,4.11,0,0,0,261.77,244.89Z" transform="translate(-82.47 40.76)"/><path d="M238.68,267.74c.72-5.52-1.87-11.08-7.26-13.3-6.5-2.68-12.57,1.61-16.54,6.5-6,7.38-10,17-12.8,26-3.58,11.65-4.14,24.43-12.31,34.13-1,1.21.73,3,1.76,1.75,7.88-9.35,9-21.1,12.16-32.51a91.14,91.14,0,0,1,9.13-21.78c2.25-3.84,4.78-8.06,8.62-10.52,7.41-4.75,15.86,1.27,14.76,9.72-.21,1.58,2.28,1.57,2.48,0Z" transform="translate(-82.47 40.76)"/><path d="M276.63,278.11a21.58,21.58,0,0,0,0,2.9.14.14,0,1,0,.27,0,25.49,25.49,0,0,0,0-2.9.16.16,0,0,0-.31,0Z" transform="translate(-82.47 40.76)" style="fill:#bc2f20"/><path d="M207.54,283a6.41,6.41,0,0,0-.65,5.16c.11.32.63.38.71,0a20.85,20.85,0,0,0,.34-5,.22.22,0,0,0-.4-.11Z" transform="translate(-82.47 40.76)" style="fill:#bc2f20"/><path d="M275.19,281.91a3.43,3.43,0,0,0,.65.67c.13.1.34,0,.24-.19a3.06,3.06,0,0,0-.58-.71c-.15-.15-.44.05-.31.23Z" transform="translate(-82.47 40.76)" style="fill:#bc2f20"/><path d="M278.25,281.21c-.08,1,0,2,0,3a23.29,23.29,0,0,0,0,3c0,.24.4.34.46.06a14,14,0,0,0-.31-6.08s-.07,0-.08,0Z" transform="translate(-82.47 40.76)" style="fill:#bc2f20"/><path d="M202.79,351.34a5.64,5.64,0,0,0-.1,1.69.22.22,0,0,0,.43,0,5.34,5.34,0,0,0-.11-1.69.11.11,0,0,0-.22,0Z" transform="translate(-82.47 40.76)" style="fill:#bc2f20"/><path d="M204,351.79a9.33,9.33,0,0,0,0,2.74.19.19,0,0,0,.37,0,9.33,9.33,0,0,0-.05-2.74.14.14,0,1,0-.27,0Z" transform="translate(-82.47 40.76)" style="fill:#bc2f20"/><path d="M205.38,354.85a3.66,3.66,0,0,0,.22,2,.2.2,0,0,0,.38-.05,3.65,3.65,0,0,0-.42-1.93.1.1,0,0,0-.18,0Z" transform="translate(-82.47 40.76)" style="fill:#bc2f20"/><path d="M203.07,355.5a2.06,2.06,0,0,0,.39,1.09.14.14,0,0,0,.25-.1,2.1,2.1,0,0,0-.54-1,.06.06,0,0,0-.1,0Z" transform="translate(-82.47 40.76)" style="fill:#bc2f20"/><path d="M241,292.19a6.39,6.39,0,0,0,.07,2.14.29.29,0,0,0,.56,0,5.91,5.91,0,0,0,.07-2.14.35.35,0,0,0-.7,0Z" transform="translate(-82.47 40.76)" style="fill:#bc2f20"/><path d="M241.74,292.19a2.94,2.94,0,0,0,0,1.32.3.3,0,0,0,.57,0,3.09,3.09,0,0,0,0-1.32.28.28,0,0,0-.55,0Z" transform="translate(-82.47 40.76)" style="fill:#bc2f20"/><path d="M242.28,288.92c.23,1.28.07,2.68.4,3.93a.18.18,0,0,0,.34,0,8,8,0,0,0-.44-4,.16.16,0,0,0-.3.09Z" transform="translate(-82.47 40.76)" style="fill:#bc2f20"/><path d="M241.15,297.29a1.41,1.41,0,0,0,.25,1.5c.14.12.42,0,.4-.17a4.19,4.19,0,0,1-.13-1.18c.06-.34-.43-.49-.52-.15Z" transform="translate(-82.47 40.76)" style="fill:#bc2f20"/><path d="M205.84,304.8a3.17,3.17,0,0,0,.45,1.54.2.2,0,0,0,.37-.09,3.11,3.11,0,0,0-.46-1.54c-.08-.17-.39-.1-.36.09Z" transform="translate(-82.47 40.76)" style="fill:#bc2f20"/><path d="M206.61,304c.31.31.28.53.42.87.07.16.33.26.43.06a1.11,1.11,0,0,0-.43-1.34c-.28-.24-.68.14-.42.41Z" transform="translate(-82.47 40.76)" style="fill:#bc2f20"/><path d="M216,275.22a9.75,9.75,0,0,0-.07,2.53c0,.19.35.19.37,0a9.75,9.75,0,0,0-.07-2.53.12.12,0,0,0-.23,0Z" transform="translate(-82.47 40.76)" style="fill:#bc2f20"/><path d="M216.69,275.82a24,24,0,0,0,.06,3.18c0,.22.35.17.41,0a5.62,5.62,0,0,0-.16-3.22c-.05-.16-.32-.13-.31,0Z" transform="translate(-82.47 40.76)" style="fill:#bc2f20"/><path d="M226.47,327.51a5,5,0,0,0,.12,4.48.18.18,0,0,0,.32-.13,7.48,7.48,0,0,1,0-4.22c.1-.29-.33-.4-.45-.13Z" transform="translate(-82.47 40.76)" style="fill:#bc2f20"/><path d="M223.78,327.16a2.6,2.6,0,0,0,0,.88.2.2,0,0,0,.38,0,2.6,2.6,0,0,0,0-.88.23.23,0,0,0-.46,0Z" transform="translate(-82.47 40.76)" style="fill:#bc2f20"/><path d="M266.8,303.29a7.54,7.54,0,0,0-.35,1.94c0,.2.31.3.4.11a8.2,8.2,0,0,0,.55-1.89.31.31,0,0,0-.6-.16Z" transform="translate(-82.47 40.76)" style="fill:#bc2f20"/><path d="M267.74,305.39c-.12.7-.4,1.35-.52,2,0,.22.24.46.42.24a2.66,2.66,0,0,0,.4-2.28c0-.14-.28-.15-.3,0Z" transform="translate(-82.47 40.76)" style="fill:#bc2f20"/><path d="M302.61,303.52a1.79,1.79,0,0,0-.26.66.65.65,0,0,0,.17.62.59.59,0,0,0,.62.16.67.67,0,0,0,.44-.44,1.73,1.73,0,0,0,.1-.71.58.58,0,0,0-1.07-.29Z" transform="translate(-82.47 40.76)" style="fill:#bc2f20"/><path d="M299.8,305.7c-.37.47-.61,1-.25,1.51a.26.26,0,0,0,.46-.06c.1-.42,0-.84.12-1.26,0-.18-.2-.35-.33-.19Z" transform="translate(-82.47 40.76)" style="fill:#bc2f20"/><path d="M368.41,301.57a2.54,2.54,0,0,1-.11,1.13c-.06.2.21.29.32.13a1.94,1.94,0,0,0,.29-1.33.25.25,0,1,0-.5.07Z" transform="translate(-82.47 40.76)" style="fill:#bc2f20"/><path d="M370,302.12a3.25,3.25,0,0,0,0,1.28.14.14,0,0,0,.26,0,3.45,3.45,0,0,0,0-1.28.1.1,0,0,0-.19,0Z" transform="translate(-82.47 40.76)" style="fill:#bc2f20"/><path d="M371.09,347a7.79,7.79,0,0,0-.93,1.43c-.07.16.19.31.29.17a7.29,7.29,0,0,0,.81-1.51c.06-.11-.09-.2-.17-.09Z" transform="translate(-82.47 40.76)" style="fill:#bc2f20"/><path d="M368.53,345.79c0,.55,0,1.1,0,1.65a.13.13,0,0,0,.27,0c0-.55,0-1.1,0-1.65a.13.13,0,1,0-.27,0Z" transform="translate(-82.47 40.76)" style="fill:#bc2f20"/><path d="M307.38,350a4.54,4.54,0,0,0,1.85,2.58c.22.12.55-.09.46-.35a7.26,7.26,0,0,0-1.79-2.53.31.31,0,0,0-.52.3Z" transform="translate(-82.47 40.76)" style="fill:#bc2f20"/><path d="M305,352.72a6.51,6.51,0,0,0,.84,1.69c.16.2.43,0,.39-.22a6.63,6.63,0,0,0-.7-1.7c-.14-.29-.66-.08-.53.23Z" transform="translate(-82.47 40.76)" style="fill:#bc2f20"/><path d="M359.74,323.69c-.65.44-1.08,1.51-.28,2a.28.28,0,0,0,.42-.17c.09-.53-.05-.95.31-1.42.2-.27-.19-.63-.45-.45Z" transform="translate(-82.47 40.76)" style="fill:#bc2f20"/><path d="M300.39,197c.3.59.59,1.19.9,1.77a.43.43,0,0,0,.33.12,12.83,12.83,0,0,0,1.52,0,.77.77,0,0,0,.5-.28,10.89,10.89,0,0,0,.74-1.28.38.38,0,0,1,.5-.22c.65.2,1.31.38,1.95.56,0,.6,0,1.19,0,1.77,0,.32,0,.54.37.67a2.44,2.44,0,0,1,.78.46.91.91,0,0,0,1.33,0,12.72,12.72,0,0,1,1.11-.66l1.84,1.63c-.35.56-.65,1.08-1,1.58a.51.51,0,0,0,0,.71,3,3,0,0,1,.53.9.74.74,0,0,0,.93.55c.4,0,.8,0,1.19,0s.44.1.51.4c.14.59.32,1.16.48,1.74v.19c-.55.3-1.12.6-1.66.93a.6.6,0,0,0-.25.43c0,.59-.2,1.29.06,1.73s1,.66,1.49,1c.23.13.32.26.24.53-.17.54-.33,1.1-.47,1.65a.38.38,0,0,1-.47.33c-.47,0-.95,0-1.42-.07a.47.47,0,0,0-.52.3,9.72,9.72,0,0,1-.75,1.28.47.47,0,0,0,0,.59c.32.5.61,1,.93,1.59l-.52.46-.52.49c-.7.7-.73.74-1.52.17a1.53,1.53,0,0,0-1.92-.07,1.57,1.57,0,0,0-1,1.79c.08.87,0,.88-.83,1.1-.49.12-1.07.41-1.46.25s-.53-.78-.75-1.22a.73.73,0,0,0-.87-.51,5.07,5.07,0,0,1-1.23,0,.5.5,0,0,0-.56.31c-.27.51-.57,1-.86,1.51-.68-.19-1.33-.39-2-.55-.29-.07-.34-.21-.33-.47a12.71,12.71,0,0,0,0-1.38.72.72,0,0,0-.26-.47,15.06,15.06,0,0,0-1.4-.82.67.67,0,0,0-.5,0c-.44.22-.85.5-1.28.72a.43.43,0,0,1-.4,0c-.52-.51-1-1-1.53-1.57.31-.5.62-1,.88-1.46a.65.65,0,0,0,0-.53c-.24-.48-.55-.93-.79-1.41a.47.47,0,0,0-.51-.3h-1.64a1.29,1.29,0,0,1-.06-.12c-.12-.44-.23-.89-.35-1.33-.22-.87-.24-.93.59-1.28s1.1-.75.91-1.58a1.55,1.55,0,0,1,0-.71A.69.69,0,0,0,291,208c-.41-.2-1-.38-1.12-.73s.15-.87.28-1.31c.26-.94.26-.94,1.23-.93.22,0,.45,0,.67,0a.46.46,0,0,0,.52-.29c.26-.49.58-.95.84-1.44a.6.6,0,0,0,0-.49c-.26-.5-.56-1-.74-1.31l1.61-1.85c.43.26.82.46,1.16.71a.81.81,0,0,0,1.16,0,4.57,4.57,0,0,1,1.05-.55.52.52,0,0,0,.38-.57c0-.42,0-.86,0-1.28s.1-.45.4-.52c.59-.14,1.16-.32,1.74-.48Zm9.27,12.79a7.46,7.46,0,1,0-7.43,7.3A7.48,7.48,0,0,0,309.66,209.82Z" transform="translate(-82.47 40.76)"/><path d="M207.27,202.28a1.24,1.24,0,0,0,.77,2l.94.22c1.8.44,1.78.44,1.84,2.26,0,.5-.1.8-.62.94s-1.21.42-1.81.64a1.29,1.29,0,0,0-.57,2.17c.22.24.43.48.64.73,1.17,1.35,1.15,1.34.1,2.84a.8.8,0,0,1-1.06.39c-.63-.23-1.28-.39-1.92-.57a1.34,1.34,0,0,0-1.68,1.32c0,.72.13,1.44.17,2.16,0,.2,0,.54-.1.59a8.31,8.31,0,0,1-2.09.79c-.25,0-.62-.55-.92-.87s-.43-.54-.64-.82c-.89-1.14-1.84-1.08-2.59.15-.3.51-.6,1-.91,1.51-.1.15-.28.39-.37.37a9,9,0,0,1-2.15-.58c-.24-.13-.24-.8-.29-1.22s0-.86,0-1.29a1.37,1.37,0,0,0-1.9-1.28c-.62.26-1.22.54-1.85.77-.2.08-.55.13-.64,0a6.83,6.83,0,0,1-1.35-1.76c-.12-.29.42-.85.67-1.28.13-.23.29-.45.44-.67.78-1.14.42-2-.93-2.36-.57-.13-1.15-.25-1.72-.4-.16-.05-.42-.16-.43-.27a8.93,8.93,0,0,1-.09-2.3c0-.25.72-.43,1.12-.6s.91-.32,1.36-.49a1.33,1.33,0,0,0,.5-1.89l-1.81-2.09c.4-.62.74-1.23,1.17-1.77a.93.93,0,0,1,.78-.26c.68.13,1.34.36,2,.55a1.24,1.24,0,0,0,1.62-1.38c0-.27-.06-.53-.07-.8-.13-2-.13-2,1.85-2.53a1,1,0,0,1,.78.26c.5.55.91,1.19,1.41,1.75a1.44,1.44,0,0,0,.79.36c1,.2,1.2-.68,1.57-1.28,1.09-1.78,1.08-1.8,3-1.05a.91.91,0,0,1,.47.65c.09.72,0,1.45.11,2.16a1.83,1.83,0,0,0,.49.89c.57.67,1.16.21,1.73,0,2.24-.93,2.24-.93,3.64,1.2Zm-15.54,4.4a6.64,6.64,0,1,0,6.84-6.38A6.72,6.72,0,0,0,191.73,206.68Z" transform="translate(-82.47 40.76)"/><path d="M254.2,218.18c-.54.36-.48,1.75.14,2a1.06,1.06,0,0,1,.63,1.68,5.27,5.27,0,0,0-.2.6c-.71.14-1.46-.28-2,.68s.18,1.41.43,2.27a3.19,3.19,0,0,0-.69.53c-.43.53-.87.6-1.34.13s-1,0-1.57.15-.54.62-.47,1c.11.71-.24.93-.86,1.05s-1.06.32-1.34-.46a1.12,1.12,0,0,0-.65-.69c-.77-.13-1.57-.16-1.86.85a2.37,2.37,0,0,1-.31.47l-.87-.25-.82-.25c0-.41,0-.76,0-1.1,0-.66-1.31-1.43-1.81-1-.76.59-1.27.37-1.77-.3a4.9,4.9,0,0,0-.45-.49l.46-.76c.43-.72-.27-2.09-1.08-2s-1.15-.28-1.23-1c0-.23-.09-.46-.14-.69a2.86,2.86,0,0,1,.29-.21c.54-.27,1-.47,1-1.31a1.4,1.4,0,0,0-.87-1.47c-.73-.35-.14-.88-.1-1.32s.17-.7.72-.64a1.34,1.34,0,0,0,1-.19,1.5,1.5,0,0,0,.27-2.21l-.18-.39,1.29-1.21c.68.3,1.13.87,2.05.41s.61-1.28.76-2l1.73-.43a6.18,6.18,0,0,1,.47.86c.23.74.84.48,1.33.57a.75.75,0,0,0,.91-.58c.26-.73.71-.9,1.41-.57a7,7,0,0,0,.81.26,4.75,4.75,0,0,1,0,1c-.16.72.44.81.81,1.11a.74.74,0,0,0,1.08,0c.65-.57,1.17-.44,1.64.23a6.68,6.68,0,0,0,.48.53c-.17.76-1,1.15-.48,2.15s1.31.52,2,.7C255.4,217.37,255.4,217.37,254.2,218.18Zm-14.06.92a5.61,5.61,0,1,0,5.63-5.57A5.63,5.63,0,0,0,240.14,219.1Z" transform="translate(-82.47 40.76)"/><path d="M265.39,164.66c-.52.2-.74-.06-1-.34a1.86,1.86,0,0,0-2.67,0c-.32.28-.57.47-1,.2s-.41-.53-.37-.92a2.09,2.09,0,0,0-1.61-2.26,1.31,1.31,0,0,1-.75-.62c-.21-.41,0-.72.43-1a2,2,0,0,0,.74-2.59,1.2,1.2,0,0,1,0-.91.7.7,0,0,1,1-.35,1.91,1.91,0,0,0,2.48-1,1,1,0,0,1,.78-.44,1.13,1.13,0,0,1,.84.48,1.92,1.92,0,0,0,2.36,1.26,1.42,1.42,0,0,1,.89.39c.33.26.34.58.08,1a1.65,1.65,0,0,0,.51,2.5c.42.3.4.59.32,1s-.37.58-.78.62a1.8,1.8,0,0,0-1.68,2A.79.79,0,0,1,265.39,164.66Zm-2.19-7.6a2.61,2.61,0,1,0,0,5.22,2.61,2.61,0,0,0,0-5.22Z" transform="translate(-82.47 40.76)"/><path d="M90,362c-.51.21-.73-.06-1-.34a1.86,1.86,0,0,0-2.67,0c-.32.28-.57.47-1,.2s-.42-.52-.37-.92a2.07,2.07,0,0,0-1.61-2.25,1.37,1.37,0,0,1-.75-.63c-.21-.41,0-.72.43-1a2,2,0,0,0,.74-2.59,1.17,1.17,0,0,1,0-.9.7.7,0,0,1,1-.36,1.9,1.9,0,0,0,2.48-1,1,1,0,0,1,.78-.44,1.18,1.18,0,0,1,.84.48,1.91,1.91,0,0,0,2.35,1.26,1.42,1.42,0,0,1,.9.39c.32.26.34.58.08,1a1.65,1.65,0,0,0,.51,2.5c.42.3.4.59.32,1s-.37.58-.78.62a1.8,1.8,0,0,0-1.68,2A.8.8,0,0,1,90,362Zm-2.18-7.6a2.62,2.62,0,1,0,0,5.23,2.62,2.62,0,0,0,0-5.23Z" transform="translate(-82.47 40.76)"/><path d="M243.63,200.59a5.59,5.59,0,0,1-2.37-.51.62.62,0,0,1-.3-.82.63.63,0,0,1,.82-.31,4.44,4.44,0,0,0,5.32-1.23,3.31,3.31,0,0,0,.54-1.19,9.37,9.37,0,0,1-1.82-.52,4.92,4.92,0,0,1-2.08-1.33,2.32,2.32,0,0,1-.22-2.78,2.56,2.56,0,0,1,3.44-.29,4.55,4.55,0,0,1,1.95,3c0,.21.06.42.08.63a3.22,3.22,0,0,0,2.16-2.6,5.35,5.35,0,0,0-.11-2.16,11.19,11.19,0,0,1-3.34-.56,2.87,2.87,0,0,1-2.21-2.28,2,2,0,0,1,.83-1.79,2.73,2.73,0,0,1,2.54-.48,4.83,4.83,0,0,1,2.72,2.91,9.07,9.07,0,0,1,.36.88,5,5,0,0,0,1-.31,3.23,3.23,0,0,0,1.68-1.93,3.72,3.72,0,0,0,0-1.85,7.57,7.57,0,0,1-5.92-1.84,2.12,2.12,0,0,1-.61-2.09,2,2,0,0,1,1.78-1.33,5.27,5.27,0,0,1,4.61,2,11.62,11.62,0,0,1,.94,1.75,5.31,5.31,0,0,0,2.52-2.39,3.51,3.51,0,0,0,0-3.2.62.62,0,1,1,1.12-.54,4.7,4.7,0,0,1,0,4.29,6.58,6.58,0,0,1-3.24,3,4.85,4.85,0,0,1,0,2.54,4.55,4.55,0,0,1-2.36,2.71,5.58,5.58,0,0,1-1.16.37,6.64,6.64,0,0,1,.08,2.5,4.39,4.39,0,0,1-3.13,3.61,1.91,1.91,0,0,1-.33.06,4.65,4.65,0,0,1-.81,1.91A5.54,5.54,0,0,1,243.63,200.59Zm1.61-8.26a.88.88,0,0,0-.72.3,1.11,1.11,0,0,0,.18,1.26,3.79,3.79,0,0,0,1.57,1,8.05,8.05,0,0,0,1.47.44c0-.15,0-.29-.05-.43a3.34,3.34,0,0,0-1.4-2.21A2,2,0,0,0,245.24,192.33Zm2.83-5.83a1.6,1.6,0,0,0-1,.34.82.82,0,0,0-.36.71c.05.58.76,1,1.36,1.21a9.69,9.69,0,0,0,2.55.5c-.06-.15-.12-.3-.19-.45a3.73,3.73,0,0,0-2-2.25A1.29,1.29,0,0,0,248.07,186.5Zm2.32-5.46a1.88,1.88,0,0,0-.34,0c-.42.05-.67.21-.75.46,0,.08-.11.41.34.89a6.41,6.41,0,0,0,4.59,1.48,10.39,10.39,0,0,0-.77-1.4A4.08,4.08,0,0,0,250.39,181Z" transform="translate(-82.47 40.76)"/><path d="M255.92,41.89c-2.18-.71-4.75-.66-7-.85-2.55-.21-4.94.13-6.91,1.94a8,8,0,0,0-2.44,4.62,3.42,3.42,0,0,0-.84,1c-1.68,3.15-1.13,8.66,1.21,11.31,3.07,3.49,9.5,4.57,13.75,3.15a13,13,0,0,0,8.41-9.61C263,48.66,260.8,43.49,255.92,41.89Z" transform="translate(-82.47 40.76)" style="fill:#e89f2b"/><path d="M280.9,43.86c-3.58-4.09-24.2-17.31-29.56-17.31-8.24,0-24.66,12.11-31.65,18.2-3.46,3-3.94,4.45-1.18,5.2a70.54,70.54,0,0,0,16.26,2c7.88.3,15.78.34,23.66,0,5.43-.25,14.66-.75,20.1-2.15C282.41,48.83,285.66,49.28,280.9,43.86Z" transform="translate(-82.47 40.76)" style="fill:#488c93"/><path d="M250.35,34.49q-.82-36.78-.68-73.6" transform="translate(-82.47 40.76)" style="fill:#488c93"/><path d="M251.16,34.72c2.08-5.49,1.94,3.43,2.11-2.39C253.46,26,253,4,253.06-2.3c.06-12.38,1-25.11-1.76-37.26a1.7,1.7,0,0,0-3.25,0c-3,12.44-1.85,25.57-1.55,38.25.14,6.3-.89,26.36-.45,32.64.39,5.59,1.34-1.62,3.57,3.59.32.74,1.32.39,1.54-.2Z" transform="translate(-82.47 40.76)" style="fill:#488c93"/><path d="M252.65,28.84A95.62,95.62,0,0,1,269.12,38.9c.77.59,1.51-.72.76-1.29a95.67,95.67,0,0,0-16.47-10.07c-.87-.41-1.63.88-.76,1.3Z" transform="translate(-82.47 40.76)" style="fill:#7db4b7"/><path d="M239.5,54.12a.37.37,0,0,0,0-.74.37.37,0,0,0,0,.74Z" transform="translate(-82.47 40.76)" style="fill:#f4b251"/><path d="M239.63,56.22c2,5.7,8.36,7.71,13.88,6,.46-.14.26-.87-.2-.72-5.07,1.6-11.1-.13-12.95-5.45-.16-.45-.88-.26-.73.2Z" transform="translate(-82.47 40.76)" style="fill:#f4b251"/><path d="M271.67,40.5a.75.75,0,0,0,0-1.5.75.75,0,0,0,0,1.5Z" transform="translate(-82.47 40.76)" style="fill:#7db4b7"/></g></g></g></g></svg>