<svg xmlns="http://www.w3.org/2000/svg" width="1296.4" height="761.46" viewBox="0 0 1296.4 761.46"><g id="Layer_2" data-name="Layer 2"><g id="Layer_1-2" data-name="Layer 1"><path d="M1235.93,721.76c-2.94,1.92-7.72,4.46-16.73,5.91-5.53.87-13.18,2.12-22.8.1-.42-.09-1.15-.24-2.1-.49l-.14,0-.27,0c-.32-.08-.66-.17-1-.24-7.06-1.94-21.61-7.15-26.39-19.31-.28-.69-3.69-9.56,0-12.91,4.72-4.14,17.22,3.21,18.69.77.74-1.23-2.16-3.37-4.57-7-5.51-8-7.41-21.41-1-27.22a12.85,12.85,0,0,1,12.3-2.53c7,2.21,8.48,12.88,9.35,12.67,1.24-.37-7.4-19.43.43-28.43,2.76-3.14,7.78-5.3,11.16-3.93,5,2,4.27,10.9,6.82,11.11,2.71.22,3-9.64,11.23-16.88,2.09-1.82,7-6.14,12.62-5a11.87,11.87,0,0,1,7.29,18.88c-4.21,6.13-10.29,4.72-20.06,12-3.42,2.54-6.83,5.81-6.17,7.09.55.91,2.91-.15,6.64.72a2,2,0,0,1,.35.08c1.13.28,5.16,1.31,7.17,4.63.1.12,2.2,3.77.61,6.51a5.64,5.64,0,0,1-2.9,2.27c-6.36,2.64-13.45,7.84-13,8.89.42,1.21,10.64-3.14,13.37.19,2.26,2.77-1.91,9.25-2.45,10.09-4.53,6.94-12.16,9.79-11.86,10.33s5.67-3.3,12.33-2.52c3.11.34,8.13,1.82,8.84,4.85C1244.57,716,1238.49,720.06,1235.93,721.76Z" style="fill:#3a67b3"/><path d="M1224.83,700.25c-1-1.16-2.68-1-4-.46a14.43,14.43,0,0,0-4.32,2.79c-2.69,2.42-4.84,5.52-8,7.31a8.78,8.78,0,0,1-5.31,1.21,129,129,0,0,0,4.08-16.58c.41-2.08.81-4.18,1.24-6.27,3.94-4.15,10.39-3.8,14.84-7.18a8.43,8.43,0,0,0,2.72-3.42c.1-.23-.27-.36-.37-.12-1.11,2.63-3.66,4.18-6.21,5.2s-5.21,1.57-7.67,2.73a12.13,12.13,0,0,0-3.17,2.12,87.88,87.88,0,0,1,4.77-16.56c2.72-6.45,6.72-12.54,12.43-16.7.72-.51,1.46-1,2.22-1.44.21-.14,0-.49-.17-.36-5.88,3.49-10.24,9-13.29,15-.53,1-1,2.07-1.45,3.13a.14.14,0,0,0-.07-.12c-2.79-2-2.61-5.85-2.15-8.9a31.59,31.59,0,0,0,.55-5,5.8,5.8,0,0,0-1.26-4c-.17-.18-.47.08-.29.26,1.17,1.24,1.23,3.15,1.13,4.76s-.49,3.47-.68,5.21c-.33,2.86,0,6.17,2.48,8a.17.17,0,0,0,.22,0,96.28,96.28,0,0,0-5.23,18.66c-.7,3.51-1.36,7-2.12,10.55a17.12,17.12,0,0,1-9.59-8.08,16.11,16.11,0,0,1-1.75-6.52c-.19-2.5-.15-5.06-.92-7.47s-2.45-4.61-5-5.22c-.24-.06-.37.31-.13.37,2.56.61,4.17,2.91,4.85,5.32s.62,5.06.85,7.6a15.53,15.53,0,0,0,1.81,6.21,17.91,17.91,0,0,0,3.85,4.77,16.81,16.81,0,0,0,5.94,3.41A90.48,90.48,0,0,1,1202.1,713a51,51,0,0,1-3.91,8.25c-2.23-5.91-9-8-13-12.38a10.85,10.85,0,0,1-2.59-4.44c-.06-.24-.45-.17-.38.07,1.7,6.2,8.52,8.52,12.72,12.65a11.89,11.89,0,0,1,2.94,4.37.16.16,0,0,0,.09.09,37.75,37.75,0,0,1-4.08,5.55l.27,0,.14,0a40.86,40.86,0,0,0,6.41-9.91,60.78,60.78,0,0,0,2.36-5.89c3.13.42,6.06-1.2,8.33-3.21,2.64-2.34,4.73-5.31,7.76-7.19,1.4-.86,4-2.17,5.37-.58A.2.2,0,0,0,1224.83,700.25Z" style="fill:#fff"/><path d="M1137,723.47c1.92,1.25,5,2.91,10.91,3.86a38.65,38.65,0,0,0,14.87.06c.27-.06.75-.16,1.37-.32l.09,0,.18,0,.66-.16c4.61-1.26,14.09-4.66,17.2-12.58.19-.46,2.41-6.24,0-8.42-3.07-2.7-11.23,2.09-12.18.5-.49-.81,1.4-2.2,3-4.55,3.59-5.25,4.83-14,.67-17.75a8.41,8.41,0,0,0-8-1.65c-4.59,1.44-5.53,8.4-6.09,8.26-.82-.24,4.82-12.67-.28-18.53-1.8-2-5.08-3.46-7.29-2.57-3.23,1.32-2.78,7.11-4.44,7.25s-2-6.29-7.32-11c-1.36-1.19-4.56-4-8.23-3.29a7.74,7.74,0,0,0-4.75,12.31c2.74,4,6.71,3.08,13.08,7.84,2.22,1.65,4.45,3.78,4,4.62-.36.59-1.9-.1-4.33.47l-.23,0c-.74.19-3.37.85-4.67,3-.07.08-1.44,2.46-.4,4.24a3.7,3.7,0,0,0,1.89,1.49c4.15,1.71,8.77,5.1,8.5,5.79s-6.93-2.05-8.71.12c-1.48,1.81,1.24,6,1.59,6.58,3,4.53,7.93,6.38,7.74,6.74s-3.7-2.15-8-1.65c-2,.23-5.29,1.19-5.76,3.16C1131.39,719.71,1135.35,722.36,1137,723.47Z" style="fill:#5e8bd6"/><path d="M1144.26,709.45a2.26,2.26,0,0,1,2.58-.3,9.16,9.16,0,0,1,2.82,1.82c1.75,1.57,3.16,3.59,5.25,4.76a5.76,5.76,0,0,0,3.46.79,83.59,83.59,0,0,1-2.66-10.81c-.27-1.36-.53-2.72-.81-4.09-2.56-2.7-6.77-2.48-9.67-4.68a5.54,5.54,0,0,1-1.78-2.23c-.06-.15.18-.23.24-.08a6.91,6.91,0,0,0,4,3.4c1.65.66,3.4,1,5,1.77a7.67,7.67,0,0,1,2.07,1.39,57.54,57.54,0,0,0-3.11-10.8,25.48,25.48,0,0,0-8.1-10.89c-.47-.34-1-.65-1.45-.94-.14-.09,0-.32.11-.24a23.43,23.43,0,0,1,8.67,9.8c.34.67.65,1.35.94,2a.09.09,0,0,1,0-.08c1.82-1.33,1.71-3.81,1.41-5.8A19.14,19.14,0,0,1,1153,681a3.77,3.77,0,0,1,.82-2.6c.11-.12.31.05.19.17a4.07,4.07,0,0,0-.74,3.1c.07,1.14.32,2.26.45,3.4.21,1.86,0,4-1.62,5.22a.11.11,0,0,1-.14,0,63.82,63.82,0,0,1,3.41,12.16c.45,2.3.88,4.6,1.38,6.88a11.14,11.14,0,0,0,6.25-5.27,10.31,10.31,0,0,0,1.14-4.25,21,21,0,0,1,.61-4.87,4.79,4.79,0,0,1,3.24-3.4c.16,0,.25.2.09.24a4.64,4.64,0,0,0-3.16,3.47,27.39,27.39,0,0,0-.56,5,10.19,10.19,0,0,1-1.17,4,11.49,11.49,0,0,1-2.52,3.11,10.77,10.77,0,0,1-3.87,2.22,59.55,59.55,0,0,0,2.32,8.21,33.91,33.91,0,0,0,2.55,5.38c1.45-3.85,5.85-5.23,8.48-8.08a7.1,7.1,0,0,0,1.69-2.89c0-.16.29-.11.24,0-1.1,4-5.55,5.55-8.29,8.25a7.73,7.73,0,0,0-1.92,2.84.08.08,0,0,1,0,.06,23.1,23.1,0,0,0,2.66,3.62l-.18,0-.09,0a26.8,26.8,0,0,1-4.18-6.46,39.42,39.42,0,0,1-1.54-3.84,7.06,7.06,0,0,1-5.43-2.1c-1.72-1.52-3.09-3.46-5.06-4.68-.91-.57-2.62-1.42-3.5-.38A.13.13,0,0,1,1144.26,709.45Z" style="fill:#fff"/><path d="M83.85,721.76c2.94,1.92,7.73,4.46,16.73,5.91,5.53.87,13.18,2.12,22.81.1.41-.09,1.15-.24,2.09-.49l.14,0,.27,0c.32-.08.66-.17,1-.24,7.06-1.94,21.6-7.15,26.38-19.31.29-.69,3.69-9.56-.05-12.91-4.72-4.14-17.22,3.21-18.69.77-.74-1.23,2.16-3.37,4.58-7,5.51-8,7.41-21.41,1-27.22a12.85,12.85,0,0,0-12.3-2.53c-7,2.21-8.47,12.88-9.34,12.67-1.25-.37,7.39-19.43-.43-28.43-2.76-3.14-7.78-5.3-11.17-3.93-5,2-4.27,10.9-6.82,11.11-2.71.22-3-9.64-11.23-16.88-2.09-1.82-7-6.14-12.61-5A11.86,11.86,0,0,0,69,647.14c4.21,6.13,10.29,4.72,20,12,3.42,2.54,6.84,5.81,6.18,7.09-.55.91-2.92-.15-6.64.72a2,2,0,0,0-.36.08c-1.13.28-5.16,1.31-7.17,4.63-.1.12-2.2,3.77-.61,6.51a5.62,5.62,0,0,0,2.91,2.27c6.36,2.64,13.44,7.84,13,8.89-.43,1.21-10.64-3.14-13.38.19-2.26,2.77,1.91,9.25,2.45,10.09C90,706.57,97.61,709.42,97.31,710s-5.68-3.3-12.34-2.52c-3.11.34-8.13,1.82-8.84,4.85C75.22,716,81.29,720.06,83.85,721.76Z" style="fill:#3a67b3"/><path d="M95,700.25c1-1.16,2.68-1,4-.46a14.31,14.31,0,0,1,4.32,2.79c2.69,2.42,4.84,5.52,8,7.31a8.78,8.78,0,0,0,5.31,1.21,129,129,0,0,1-4.08-16.58c-.41-2.08-.81-4.18-1.23-6.27-3.94-4.15-10.4-3.8-14.85-7.18a8.43,8.43,0,0,1-2.72-3.42c-.1-.23.27-.36.37-.12,1.11,2.63,3.66,4.18,6.21,5.2s5.21,1.57,7.67,2.73a12.35,12.35,0,0,1,3.18,2.12A88.66,88.66,0,0,0,106.36,671c-2.71-6.45-6.71-12.54-12.43-16.7-.72-.51-1.46-1-2.22-1.44-.21-.14,0-.49.17-.36,5.89,3.49,10.24,9,13.3,15,.52,1,1,2.07,1.44,3.13a.17.17,0,0,1,.07-.12c2.79-2,2.61-5.85,2.15-8.9a30.47,30.47,0,0,1-.54-5,5.74,5.74,0,0,1,1.25-4c.17-.18.47.08.3.26-1.18,1.24-1.24,3.15-1.14,4.76s.49,3.47.69,5.21c.32,2.86,0,6.17-2.49,8a.17.17,0,0,1-.22,0,96.28,96.28,0,0,1,5.23,18.66c.7,3.51,1.36,7,2.12,10.55a17.08,17.08,0,0,0,9.59-8.08,16,16,0,0,0,1.75-6.52c.19-2.5.15-5.06.93-7.47s2.44-4.61,5-5.22c.24-.06.37.31.13.37-2.56.61-4.17,2.91-4.85,5.32s-.62,5.06-.85,7.6a15.68,15.68,0,0,1-1.8,6.21,18,18,0,0,1-3.86,4.77,16.64,16.64,0,0,1-5.94,3.41A93.32,93.32,0,0,0,117.68,713a51.84,51.84,0,0,0,3.91,8.25c2.23-5.91,9-8,13-12.38a10.85,10.85,0,0,0,2.59-4.44c.07-.24.45-.17.38.07-1.69,6.2-8.51,8.52-12.72,12.65a11.89,11.89,0,0,0-2.94,4.37.16.16,0,0,1-.09.09,37.75,37.75,0,0,0,4.08,5.55l-.27,0-.14,0a41.46,41.46,0,0,1-6.41-9.91,60.78,60.78,0,0,1-2.36-5.89c-3.13.42-6-1.2-8.33-3.21-2.63-2.34-4.73-5.31-7.76-7.19-1.39-.86-4-2.17-5.37-.58C95.09,700.7,94.79,700.44,95,700.25Z" style="fill:#fff"/><path d="M182.76,723.47c-1.92,1.25-5,2.91-10.91,3.86a38.64,38.64,0,0,1-14.87.06c-.27-.06-.75-.16-1.36-.32l-.1,0-.17,0-.67-.16c-4.6-1.26-14.09-4.66-17.2-12.58-.19-.46-2.41-6.24,0-8.42,3.08-2.7,11.23,2.09,12.19.5.48-.81-1.41-2.2-3-4.55-3.59-5.25-4.83-14-.66-17.75a8.38,8.38,0,0,1,8-1.65c4.59,1.44,5.53,8.4,6.1,8.26.81-.24-4.82-12.67.28-18.53,1.8-2,5.07-3.46,7.28-2.57,3.24,1.32,2.78,7.11,4.45,7.25s2-6.29,7.31-11c1.37-1.19,4.56-4,8.23-3.29a7.74,7.74,0,0,1,4.75,12.31c-2.74,4-6.71,3.08-13.07,7.84-2.23,1.65-4.46,3.78-4,4.62.36.59,1.9-.1,4.33.47l.23,0a7.58,7.58,0,0,1,4.68,3c.06.08,1.43,2.46.39,4.24a3.7,3.7,0,0,1-1.89,1.49c-4.15,1.71-8.76,5.1-8.5,5.79s6.94-2.05,8.72.12c1.47,1.81-1.24,6-1.6,6.58-2.95,4.53-7.93,6.38-7.73,6.74s3.7-2.15,8-1.65c2,.23,5.3,1.19,5.76,3.16C188.39,719.71,184.43,722.36,182.76,723.47Z" style="fill:#5e8bd6"/><path d="M175.52,709.45a2.26,2.26,0,0,0-2.58-.3,9.28,9.28,0,0,0-2.82,1.82c-1.75,1.57-3.15,3.59-5.24,4.76a5.79,5.79,0,0,1-3.47.79,83.59,83.59,0,0,0,2.66-10.81c.27-1.36.53-2.72.81-4.09,2.57-2.7,6.78-2.48,9.68-4.68a5.52,5.52,0,0,0,1.77-2.23c.06-.15-.18-.23-.24-.08A6.88,6.88,0,0,1,172,698c-1.64.66-3.39,1-5,1.77a7.83,7.83,0,0,0-2.07,1.39,57.54,57.54,0,0,1,3.11-10.8,25.42,25.42,0,0,1,8.11-10.89c.47-.34.95-.65,1.44-.94.14-.09,0-.32-.11-.24a23.56,23.56,0,0,0-8.67,9.8c-.34.67-.64,1.35-.94,2a.09.09,0,0,0,0-.08c-1.82-1.33-1.7-3.81-1.4-5.8a20.18,20.18,0,0,0,.35-3.28,3.72,3.72,0,0,0-.82-2.6c-.11-.12-.3.05-.19.17a4.07,4.07,0,0,1,.74,3.1c-.07,1.14-.32,2.26-.45,3.4-.21,1.86,0,4,1.62,5.22a.12.12,0,0,0,.15,0,62.39,62.39,0,0,0-3.41,12.16c-.46,2.3-.89,4.6-1.38,6.88a11.12,11.12,0,0,1-6.26-5.27,10.47,10.47,0,0,1-1.14-4.25,21,21,0,0,0-.6-4.87,4.82,4.82,0,0,0-3.25-3.4c-.16,0-.24.2-.09.24a4.67,4.67,0,0,1,3.17,3.47,27.38,27.38,0,0,1,.55,5,10,10,0,0,0,1.18,4,11.27,11.27,0,0,0,2.51,3.11,10.86,10.86,0,0,0,3.87,2.22,59.55,59.55,0,0,1-2.32,8.21,33.06,33.06,0,0,1-2.55,5.38c-1.45-3.85-5.85-5.23-8.48-8.08a7.08,7.08,0,0,1-1.68-2.89c-.05-.16-.3-.11-.25,0,1.1,4,5.55,5.55,8.29,8.25a7.73,7.73,0,0,1,1.92,2.84.07.07,0,0,0,.06.06,23.75,23.75,0,0,1-2.66,3.62l.17,0,.1,0a27.1,27.1,0,0,0,4.18-6.46,39.34,39.34,0,0,0,1.53-3.84,7,7,0,0,0,5.43-2.1c1.72-1.52,3.09-3.46,5.06-4.68.91-.57,2.62-1.42,3.51-.38C175.43,709.74,175.63,709.57,175.52,709.45Z" style="fill:#fff"/><path d="M747.25,728.86H744.4a1.43,1.43,0,0,1,0-2.76h2.85a1.43,1.43,0,0,1,0,2.76Z" style="fill:#dfe2f7"/><path d="M744.4,728.31a.46.46,0,0,1-.23-.06l-83-43.25L592,649a.83.83,0,0,1-.4-.73.92.92,0,0,1,.34-.78l1.34-.89,67.85-45.32L712.38,567l-86.68-79.4a.87.87,0,0,1-.27-.62,1,1,0,0,1,.17-.63l53.55-79.65c-1.66-2.78-9.48-15.94-18.22-30.65l-8.88-14.93a1,1,0,0,1,.12-1.16.55.55,0,0,1,.89.15L661.93,375l18.55,31.19a1,1,0,0,1,0,1L627,486.76l87,79.66a.94.94,0,0,1,.26.74.82.82,0,0,1-.34.67L661.72,602.7l-67.94,45.39,67.89,35.38,83,43.24a.92.92,0,0,1,.35,1.08A.66.66,0,0,1,744.4,728.31Z" style="fill:#dfe2f7"/><path d="M578.46,728.31a.67.67,0,0,1-.6-.52.93.93,0,0,1,.36-1.08l83-43.24,67.89-35.38L729,648,661.14,602.7,609,567.83a.86.86,0,0,1-.35-.67,1,1,0,0,1,.27-.74l87-79.66L642.4,407.27a1,1,0,0,1-.15-.55,1,1,0,0,1,.13-.51L660.93,375l8.87-14.93a.54.54,0,0,1,.89-.15,1,1,0,0,1,.12,1.16L661.93,376l-18.22,30.65,53.56,79.68a1,1,0,0,1,.15.64,1,1,0,0,1-.26.58L610.48,567l51.24,34.24,69.19,46.21a.92.92,0,0,1,.34.78.85.85,0,0,1-.4.73l-69.18,36-83,43.25A.53.53,0,0,1,578.46,728.31Z" style="fill:#dfe2f7"/><path d="M747.25,728.86H744.4a.78.78,0,0,1-.39-.1l-82.58-43-82.58,43a.81.81,0,0,1-.39.1h-2.85a1,1,0,0,1-.84-.54,1.71,1.71,0,0,1-.18-1.2l33.63-160.38L625,486.55s0-.07,0-.1l16.79-80v-.06l9.67-46.1,8.88-42.32a1,1,0,0,1,2,0l35.34,168.5,0,.12,16.81,80.19,33.64,160.38a1.71,1.71,0,0,1-.18,1.2A1,1,0,0,1,747.25,728.86Zm-2.64-2.76h1.25L712.59,567.46l-16.8-80.07a.5.5,0,0,1,0-.12L679,407.09l-17.52-83.55L653.58,361,643.92,407v.06l-16.82,80.18s0,.07,0,.1l-16.8,80.09L577,726.1h1.25L661,683a.8.8,0,0,1,.79,0Z" style="fill:#dfe2f7"/><path d="M680,408.1h-37.1a1.43,1.43,0,0,1,0-2.76H680a1.43,1.43,0,0,1,0,2.76Z" style="fill:#dfe2f7"/><path d="M696.79,488.29H626.06a1.43,1.43,0,0,1,0-2.76h70.73a1.43,1.43,0,0,1,0,2.76Z" style="fill:#dfe2f7"/><path d="M713.61,568.48H609.25a1.43,1.43,0,0,1,0-2.76H713.61a1.43,1.43,0,0,1,0,2.76Z" style="fill:#dfe2f7"/><path d="M730.43,648.67h-138a1.43,1.43,0,0,1,0-2.76h138a1.43,1.43,0,0,1,0,2.76Z" style="fill:#dfe2f7"/><path d="M663.17,276.8a12.71,12.71,0,1,1-12.71,12.71A12.71,12.71,0,0,1,663.17,276.8Z" style="fill:#dfe2f7"/><path d="M675.88,318.89a4,4,0,0,1,2-3.43c.52-.31,13.11-8,13.11-25.95,0-18.13-12-26.54-12.55-26.89a4,4,0,0,1,4.43-6.6c.65.44,16.06,11,16.06,33.49,0,22.67-16.37,32.41-17.07,32.82a4,4,0,0,1-6-3.44Z" style="fill:#dfe2f7"/><path d="M694.29,334a4,4,0,0,1,2-3.44c.84-.49,20.76-12.53,20.76-40.83,0-28.47-19-41.63-19.78-42.18a4,4,0,0,1,4.41-6.6c1,.64,23.31,15.92,23.31,48.78,0,33-23.71,47.12-24.72,47.71a4,4,0,0,1-5.42-1.45A3.9,3.9,0,0,1,694.29,334Z" style="fill:#dfe2f7"/><path d="M712.12,345.1a4,4,0,0,1,2-3.44c1.06-.62,26.38-15.88,26.38-51.8,0-36.09-24.09-52.75-25.11-53.44a4,4,0,0,1,4.41-6.6c1.17.78,28.64,19.56,28.64,60,0,40.64-29.11,58-30.35,58.68a4,4,0,0,1-6-3.44Z" style="fill:#dfe2f7"/><path d="M729.15,359.4a4,4,0,0,1,2-3.44c1.37-.8,33.63-20.19,33.63-65.91,0-45.88-31.65-67.71-32-67.93a4,4,0,0,1,4.41-6.6c1.45,1,35.5,24.25,35.5,74.53,0,50.44-36.05,71.89-37.59,72.78a4,4,0,0,1-5.42-1.45A3.86,3.86,0,0,1,729.15,359.4Z" style="fill:#dfe2f7"/><path d="M647,318.89a4,4,0,0,0-2-3.43c-.52-.31-13.11-8-13.11-25.95,0-18.13,12-26.54,12.54-26.89A4,4,0,0,0,640,256c-.66.44-16.06,11-16.06,33.49,0,22.67,16.37,32.41,17.07,32.82a4,4,0,0,0,5.42-1.45A3.9,3.9,0,0,0,647,318.89Z" style="fill:#dfe2f7"/><path d="M628.56,334a4,4,0,0,0-2-3.44c-.83-.49-20.75-12.53-20.75-40.83,0-28.47,19-41.63,19.78-42.18a4,4,0,0,0-4.42-6.6c-1,.64-23.3,15.92-23.3,48.78,0,33,23.7,47.12,24.71,47.71a4,4,0,0,0,6-3.44Z" style="fill:#dfe2f7"/><path d="M610.73,345.1a4,4,0,0,0-2-3.44c-1.07-.62-26.39-15.88-26.39-51.8,0-36.09,24.09-52.75,25.12-53.44a4,4,0,0,0-4.41-6.6c-1.17.78-28.65,19.56-28.65,60,0,40.64,29.11,58,30.35,58.68a4,4,0,0,0,6-3.44Z" style="fill:#dfe2f7"/><path d="M593.7,359.4a4,4,0,0,0-2-3.44c-1.36-.8-33.63-20.19-33.63-65.91,0-45.88,31.66-67.71,32-67.93a4,4,0,0,0-4.41-6.6c-1.45,1-35.51,24.25-35.51,74.53,0,50.44,36.06,71.89,37.59,72.78a4,4,0,0,0,6-3.43Z" style="fill:#dfe2f7"/><path d="M1029.34,560.56s-2,10.09-6,17.05a19.6,19.6,0,0,1-3,4c-6.9,6.85-31.08,7.51-31.08,7.51-3.57,4.71-10.18,5.54-13,2.45-1.62-1.81,6.67-2.56,7.87-5,0,0-4.11-1.38-3-3,.64-.9,4.51-.93,8.13.23,8.89-4,14-4.52,22.76-8.45,3.88-6.78,11.35-14.07,12.23-17.56Z" style="fill:#f1cccd"/><path d="M1031.42,561.68s-4.82,15-8.89,21.92l-10.14-9.83c8-14,11.16-15.55,14.57-17.64Z" style="fill:#ffcd75"/><path d="M891.14,559c8.92-1.78,17.91,0,26.26,3.32,7.59,3.06,13.93,8.29,20.81,12.64a188.65,188.65,0,0,0,31.66,16.37c16,6.29,33.08,9,50.2,6.63,14.44-2,28-7.24,41.76-11.88,15.48-5.23,31.23-9.23,47.66-9.5,27.91-.46,55.08,8.56,80.16,20.13,4.51,2.08,8.47-4.62,3.92-6.72-23.52-10.85-48.5-19.52-74.55-21-17.5-1-34.76,1.86-51.44,7-14.15,4.4-27.92,10.22-42.48,13.22-16.34,3.36-32.71,1.8-48.42-3.66-12.85-4.47-24.89-11.12-36.3-18.46-7.43-4.78-14.16-9.82-22.52-12.93a52.54,52.54,0,0,0-28.79-2.69c-4.9,1-2.83,8.47,2.07,7.49Z" style="fill:#c8cbe3"/><path d="M1021.88,532.26c.64-3.69,4.84-6.29,8.42-4.27a31.71,31.71,0,0,0,4.21,2.09c1.53.58,3.24.45,4.82.87a7.37,7.37,0,0,1,5,8.88c-.6,2-2.11,4-1.54,6s3,2.91,4.8,4a7.64,7.64,0,0,1,3.37,3.82,4.61,4.61,0,0,1-1,4.82c-.9.84-2.25,1.27-2.8,2.39-.67,1.38.25,3,1,4.27s1.48,3.1.47,4.26c-.82.94-2.31.85-3.51.51s-2.46-.86-3.66-.53-2.14,1.58-3.28,2.29a5.55,5.55,0,0,1-4.44.48,9.24,9.24,0,0,1-3.85-2.44c-2.44-2.45-1.7-6.75-4-9.3-4.26-4.62-3.19-13,2-17.06C1027.85,543.35,1020.7,539,1021.88,532.26Z" style="fill:#30334d"/><path d="M1031.94,667.91a123.8,123.8,0,0,1,.59,15.17c-.3,11.7-1.74,19.21-4.56,30.14l-1.62,5.28-4.61,2.15.87-7.4s-3-22.74-4.39-38.8c-.35-4.08-.58-7.7-.61-10.41-.21-15.47,11.18-57.11,11.91-59.81l0-.1v0l16.44-.52C1052.49,635.41,1042.35,641.4,1031.94,667.91Z" style="fill:#f1cccd"/><path d="M1064.4,720.26l-.12-9.35s-9-17-16.67-27.33c-1.82-2.46-3.52-4.61-4.95-6.18-10.22-11.21-20.54-71.49-20.54-71.49l15.06-1.38c13.08,12.78,11.86,32.13,13.93,51a43,43,0,0,0,6.22,17.92c.65,1.05,1.28,2.13,1.88,3.23,4.18,7.71,6.81,17.16,10.11,32.45l2.53,4.33Z" style="fill:#f1cccd"/><path d="M1023.17,602.39l21.34-4.06c21.82,22,7.72,47.39,14.47,68.5-13.31,2.19-22.85,7.61-47.29,1.78C1012.64,639,1018.23,630.09,1023.17,602.39Z" style="fill:#30334d"/><path d="M1072.62,714.2a69.28,69.28,0,0,0,1.8,8.5l-1.53.77-2.27-4.9a6.29,6.29,0,0,0-2.45,3.31c-.5,2-.73,3.79-3.17,4.85s-6,2.84-6.33,1.17,4.13-6.56,4.89-9.74a32.13,32.13,0,0,0,.72-7.25,5.8,5.8,0,0,0,5-1.83S1072.44,712.58,1072.62,714.2Z" style="fill:#30334d"/><path d="M1029.35,719.15a68.4,68.4,0,0,0-1.16,8.62l-1.7.2-.5-5.37a6.26,6.26,0,0,0-3.41,2.29c-1.17,1.76-2,3.32-4.62,3.5s-6.63.64-6.36-1,6.1-4.78,7.88-7.53a31.8,31.8,0,0,0,3.13-6.58,5.8,5.8,0,0,0,5.36,0S1029.72,717.56,1029.35,719.15Z" style="fill:#30334d"/><path d="M1020.57,610.44c6-24-5.32-36.76,2.7-51.3a0,0,0,0,1,0,0,15.83,15.83,0,0,1,2.25-2.07s0,0,0,0a31.82,31.82,0,0,1,3.44-2.47l5.62-1s8.78,1.88,12,6.46c8.24,11.78-.9,34.55,5,47.44C1045.66,611.94,1026.74,614.86,1020.57,610.44Z" style="fill:#ffbe4d"/><path d="M1034.65,553.55c-3.18,2.43-5.28,3.14-5.62,1l-.29-4-.41-6,5.12.21.68,5Z" style="fill:#f1cccd"/><path d="M1034.13,549.77a9.62,9.62,0,0,1-2.19.84,6.29,6.29,0,0,1-3.2,0l-.41-6,5.12.21Z" style="fill:#f0b4b4"/><path d="M1025.41,535.63s-2,12.71,3.69,13.2,6.35-6.06,6.35-6.06,2.84-2.09,1.83-4-3.61.35-3.61.35C1030.72,540.08,1028,539.09,1025.41,535.63Z" style="fill:#f1cccd"/><path d="M1045.72,574.34s-5.63,9-11.13,14.3a19.44,19.44,0,0,1-3.83,3c-8.44,4.58-29.35,4.55-29.35,4.55-7.12,3.41-13.72,2.4-15.66.18-3.45-4,8.07-.48,8.74-3.22,0,0-5-.78-3.67-2.76,1-1.44,9-.26,9-.26,13.27-3.16,16.26-6.74,24.36-8.41.53-1,1.06-2,1.61-3,4-7.17,8.9-13.87,16.09-18.85C1046.27,564.2,1046.83,569.16,1045.72,574.34Z" style="fill:#f1cccd"/><path d="M1036.52,588.59l-12.22-10.42c4-7.17,11.46-22.71,18.78-17.9C1052.82,566.66,1042,583.31,1036.52,588.59Z" style="fill:#ffcd75"/><path d="M271.32,534.35a12.06,12.06,0,0,0,.88-8.73c-1.46-4.53-7.4-8.58-13.26-5.65a6.17,6.17,0,0,0-2.75,3.11,6.64,6.64,0,0,0-4.62,2.71c-1.48,2-3.81,6-1.32,13.86,3,9.53-11,15.63-8.08,22.6s10.45,2.41,11.77,5.61,11.42,2.46,17.86,0C279.08,565.08,273.57,536.29,271.32,534.35Z" style="fill:#30334d"/><path d="M269.93,556.75s1.21,10.21,4.74,17.46a19.49,19.49,0,0,0,2.67,4.2c6.37,7.36,30.43,9.85,30.43,9.85,3.2,5,9.73,6.3,12.72,3.43,1.75-1.68-6.45-3.06-7.47-5.58,0,0,4.21-1.06,3.2-2.72-.58-1-4.44-1.28-8.13-.39-8.56-4.7-13.61-5.58-22.06-10.17-3.34-7.05-10.25-14.89-10.86-18.43Z" style="fill:#f1cccd"/><path d="M267.77,557.71s3.68,15.28,7.2,22.53l10.86-9c-6.9-14.55-9.95-16.35-13.19-18.69Z" style="fill:#e35b6d"/><path d="M425.78,483.65a69.61,69.61,0,0,0-36.08,14.79c-9.82,7.86-17.48,18.05-24.45,28.42-13.67,20.34-25.7,44.59-48.58,56.09-14.49,7.29-29.94,6.64-45.66,5.25-22.78-2-45.64-3.47-68.51-3.56-30.54-.13-61.7,2-91,11.24-25,7.89-47.17,21.3-68.74,35.85-4.13,2.78-.24,9.52,3.92,6.71,18.86-12.72,38.22-24.89,59.73-32.64,27.32-9.85,56.47-12.85,85.36-13.32,21.1-.35,42.21.62,63.24,2.19,18.33,1.36,37,4.79,55-.73,24.93-7.65,40-29.08,53.41-50,15.31-23.81,31.78-49,62.38-52.52,4.91-.58,5-8.36,0-7.78Z" style="fill:#c8cbe3"/><path d="M263,713.81c.17,2.18-2.27,4.47-2.41,6.71,9.29,2,18.65,3.6,28,5.24-1.59-7.56-11-7.14-17.15-9.57,0-37.69,15.87-81.5,7.13-118.67-2.92-.07-3.13.81-6.57.67s-9.3-.55-13.24-.8C257.6,631.79,262.76,710.79,263,713.81Z" style="fill:#ffcbc7"/><path d="M208.53,679.05c-2.08-.73-4.51,1.54-6.61,1,1.88,8.61,4.65,13.89,8.59,21.8,2.4-4.91,1.62-9.75,2.53-15,6.28-1.52,39.25-12.79,43.75-22.69,8.35-18.34,19.74-39.3,15.47-66-5.51-.17-11-.65-16.53-.91-10.29,14.82-12.93,54.59-15.51,59C235.22,664.72,210.86,676.08,208.53,679.05Z" style="fill:#ffcbc7"/><path d="M282.36,718.78c2.3,1.12,9.82,2.72,8,7.07s-24.19,0-28.13-2.24-.29-6.81.9-9.46c3.54,7.06,13.89,10.86,20.76,7.91C286.46,721,282.81,719.24,282.36,718.78Z" style="fill:#30334d"/><path d="M212,695.91c-.11,1.58,1.38,10.05-2.51,9.25s-10.65-21.83-9-25.83c1.86-4.56,6.44-.91,7.95-.3-5.59,3.89-2.65,15.88,1.73,18.84C211.72,698.89,212.08,696.64,212,695.91Z" style="fill:#30334d"/><path d="M228.22,653.48s5.24,5.8,10.17,4.6c0,0,5.46,8.27,14,2.56q9.74,6,19.48,0c8.57,5.71,14-2.56,14-2.56,4.92,1.2,10.17-4.6,10.17-4.6-4.71-22.14-14.88-41.05-17.34-56.79l-23.61.78C247.88,604.73,243.21,635,228.22,653.48Z" style="fill:#30334d"/><path d="M253,599.5c-.06.48,6.83,3.6,14.65,1.57,8.36-2.16,12.7,2.35,12.41-1.65-1-13.9-1.15-19.7-.08-25.63,1.88-10.46-1.3-21.42-10.7-22.53l-7.6-.07c-8.51,1.82-10.48,10.21-11.08,14C249.12,574.6,255.05,584.39,253,599.5Z" style="fill:#d94559"/><path d="M261.74,551.21c2.71,2.72,5.27,3.24,7.56,0l-.64-5.23-.27-2.21h-6l-.12,1.37Z" style="fill:#f1cccd"/><path d="M262.27,545.19a4.68,4.68,0,0,0,6.39.84l-.27-2.21h-6Z" style="fill:#f0b4b4"/><path d="M270,528.69a39.5,39.5,0,0,1,1.3,8.17c.16,3.69-.4,7.15-2.56,8.23-2.37,1.17-6.49.52-9.63-3.29l-.09,0c-.5-.34-2.95-2-2.76-3.57.29-2.28,2.43-1.08,2.43-1.08s-4.19-7.87,2.8-11.14C264.14,524.73,270,528.69,270,528.69Z" style="fill:#f1cccd"/><path d="M271.78,533.17s-.82-.17-1.59-4.9c-2.36,4.09-4.6,5.48-7.19,6.44.11-1.7-.63-4.3-1.22-4.32a6.25,6.25,0,0,1-1.44,4.45c-1.45,1.71-.09,4.81-.09,4.81a14.64,14.64,0,0,1-4.28-5c-1.53-3.11-.81-2.86-.81-2.86s1.31-4.39,1.11-4.74c-.7-1.2,7.29-4.75,7.62-4.39l4.84-.25,2.59,2.31,1.32,3.85Z" style="fill:#30334d"/><path d="M256.65,576.67s5.83,8.87,11.46,14a19.24,19.24,0,0,0,3.9,2.86c8.55,4.38,29.45,3.84,29.45,3.84,7.2,3.24,13.77,2.08,15.66-.18,3.35-4.05-8.08-.29-8.82-3,0,0,5-.89,3.61-2.84-1-1.42-9-.05-9-.05-13.35-2.84-16.42-6.35-24.56-7.82-.55-1-1.11-2-1.68-3-4.19-7.07-9.23-13.64-16.54-18.45C255.85,566.54,255.41,571.51,256.65,576.67Z" style="fill:#f1cccd"/><path d="M266.17,590.69l12-10.71c-4.19-7.08-12-22.43-19.21-17.45C249.36,569.16,260.55,585.54,266.17,590.69Z" style="fill:#e35b6d"/><path d="M517.38,528.86s-5.39,30.37-13.27,32.47c-3.56.94-8.14.15-12.52-1.33-7.39-2.5-14.19-7-14.42-8.17l-7.5-22.77c4.32,1.86,28.91,15.89,30.92,17.23,3.26-4.89,10.32-17.6,10.55-18.53,0,0-1.53-6.85-.18-8.78,1.19-1.71,1.63,3.89,2.14,3.21s3.81-8.67,6-6.35C523.89,521,517.38,528.86,517.38,528.86Z" style="fill:#f9cbcb"/><path d="M496.44,543.06c-.56,6-4,14-4.37,17.7-7.39-2.5-16.3-3.34-16.54-4.55l-5.86-27.15C474,530.92,487.86,538,496.44,543.06Z" style="fill:#ffcd75"/><path d="M448.43,451.32h-6.7a32.85,32.85,0,1,0,0,65.69h6.7a10,10,0,0,0,10-9.95V461.27A10,10,0,0,0,448.43,451.32Z" style="fill:#73b4ff"/><path d="M448.43,451.32h-6.7c-.93,0-1.85.05-2.77.12a10,10,0,0,1,.35,2.58v45.79a10,10,0,0,1-9.95,9.95h-6.71c-.51,0-1,0-1.54,0A32.68,32.68,0,0,0,441.73,517h6.7a10,10,0,0,0,10-9.95V461.27A10,10,0,0,0,448.43,451.32Z" style="fill:#4791e6"/><path d="M551.19,420.21H502a45,45,0,0,0-45,45v32a45,45,0,0,0,45,45h49.21a9.54,9.54,0,0,0,9.54-9.54v-103A9.54,9.54,0,0,0,551.19,420.21Z" style="fill:#73b4ff"/><path d="M560.35,534H511.13a45,45,0,0,1-45-45V456.93A44.82,44.82,0,0,1,476.63,428,44.94,44.94,0,0,0,457,465.23v32a45,45,0,0,0,45,45h49.21a9.52,9.52,0,0,0,9.45-8.31Z" style="fill:#4791e6"/><path d="M461,425.93a14.51,14.51,0,0,0-14.5,14.5v81.65a14.5,14.5,0,0,0,29,0V440.43A14.5,14.5,0,0,0,461,425.93Z" style="fill:#73b4ff"/><path d="M465.06,426.53a14.38,14.38,0,0,1,2.53,8.18v81.65a14.5,14.5,0,0,1-14.5,14.5,14.68,14.68,0,0,1-4.1-.6,14.5,14.5,0,0,0,26.47-8.18V440.43A14.5,14.5,0,0,0,465.06,426.53Z" style="fill:#4791e6"/><ellipse cx="554.01" cy="481.26" rx="24.27" ry="60.7" style="fill:#4791e6"/><ellipse cx="560.26" cy="481.57" rx="21.75" ry="60.39" style="fill:#abd2ff"/><rect x="561.5" y="450.02" width="49.98" height="11.21" rx="4.14" style="fill:#73b4ff"/><path d="M605.87,457.94H567.1a5.6,5.6,0,0,1-5.33-4,5.54,5.54,0,0,0,5.33,7.25h38.77A5.51,5.51,0,0,0,611.2,454,5.6,5.6,0,0,1,605.87,457.94Z" style="fill:#4791e6"/><path d="M565.63,500.38h41.71a4.14,4.14,0,0,1,4.14,4.14v2.94a4.14,4.14,0,0,1-4.14,4.14H565.63a4.13,4.13,0,0,1-4.13-4.13v-2.94a4.14,4.14,0,0,1,4.14-4.14Z" style="fill:#73b4ff"/><path d="M605.87,508.3H567.1a5.6,5.6,0,0,1-5.33-4,5.54,5.54,0,0,0,5.33,7.25h38.77a5.51,5.51,0,0,0,5.33-7.25A5.6,5.6,0,0,1,605.87,508.3Z" style="fill:#4791e6"/><path d="M467.69,658.54a100.07,100.07,0,0,0-3,15.8c-1.31,12.33-.94,31.32,1.31,43.33l6.33-.62s8.93-32.44,13.15-49c1.09-4.21,1.93-8,2.37-10.81,2.55-16.19-6.9-62.05-7.51-65l0-.11v0l-25.45-3.56C441.33,620.65,457.36,628.74,467.69,658.54Z" style="fill:#f1cccd"/><path d="M455.69,632.11c3.59,7.38,8.18,15.42,12,26.43-1.41,5.24-3,10.69-4.87,17l22,3.07c1.09-4.21,2.56-18.6,3-21.44,2.55-16.19-6.9-62.05-7.51-65l0-.11v0l-25.45-3.56C446.31,608.78,449.55,619.48,455.69,632.11Z" style="fill:#30334d"/><path d="M455.69,632.11c3.59,7.38,8.18,15.42,12,26.43-1.41,5.24-3,10.69-4.87,17l4.06.56c.7-6.28,6.25-16.61,8.12-16.28-1.66-.41-12.82-12.29-5.39-46.71Z" style="fill:#1f2138"/><path d="M441.05,725.07l-15.5-18s11.38-17.78,20.59-29.6a91.22,91.22,0,0,1,6-7.13c12.62-13.07,19.2-78.91,19.2-78.91H450.5c-16.35,15-12.23,35.72-12.71,56.17a38.6,38.6,0,0,1-6.28,19.88c-.77,1.2-1.49,2.42-2.18,3.67-4.77,8.7-7.6,18.91-10.21,35.68l-3.22,10.88Z" style="fill:#f1cccd"/><path d="M428.28,670.82l6,2.76,12.24,5.6c2.19-2.83,3.84-7,5.6-8.81,12.62-13.07,20.76-79.17,20.76-79.17l-21.52.25h-.89C434.7,606,438,625.81,437.82,645.57a37.2,37.2,0,0,1-7.61,22.34A22.57,22.57,0,0,0,428.28,670.82Z" style="fill:#30334d"/><path d="M428.28,670.82l6,2.76a92.06,92.06,0,0,0,6.44-12.8c4.1-10.38,1.58-24.47,2.56-44.29.73-14.6,13.07-21.69,13.07-21.69l-5-3.35h-.89C434.7,606,438,625.81,437.82,645.57a37.2,37.2,0,0,1-7.61,22.34A22.57,22.57,0,0,0,428.28,670.82Z" style="fill:#1f2138"/><path d="M439.91,549c.18,13.15,3.42,35.94,4.65,44.14a4.19,4.19,0,0,0,3.51,3.56A116.91,116.91,0,0,0,465.34,598a86.66,86.66,0,0,0,14.79-1.22,4.25,4.25,0,0,0,3.51-3.72c.67-6.2-1.28-19.81-1-33,.2-8.38-2.43-29.82-18.07-33.2l-9.16-.08c-10.28,2.66-14.58,10.52-15.29,16A43.47,43.47,0,0,0,439.91,549Z" style="fill:#ffbe4d"/><path d="M473.05,715.24c9.73,3.73,20.53,3.35,21.2,12.13l-30.62-1.07a21.92,21.92,0,0,1,1.86-11.06Z" style="fill:#30334d"/><path d="M425.55,707.1c7.79,6.93,19.44,11.81,17,20.27l-28.27-9.45c1-3.61,2.28-9.41,5.06-12.27Z" style="fill:#30334d"/><path d="M461.75,518.73c-3,.92-4.18,2.41-8,.69-5.81-2.62-10.71-12.67-3-17.22.54-1.59,1.07-2.21,3.11-2.65s4.11.44,6.91.4,6.76-2.94,9.2,1.14-3.61,7.24-6.64,9.24S461.28,515.8,461.75,518.73Z" style="fill:#30334d"/><path d="M455.32,526.75c3.33,3.34,6.48,4,9.29.06l-.79-6.43-.33-2.71h-7.38l-.14,1.68Z" style="fill:#f9cbcb"/><path d="M455.86,520.55c1.83,2.19,6.85,2.83,8.21,1.89l-.58-4.77-7.42-3.11Z" style="fill:#f0b4b4"/><path d="M467.27,504.78c1.36,3.82,2.69,12.29-.56,15.43-2.06,2-9.52,1.22-11-4.25-1.8-1.31-3.12-4.49-1.46-5.93,1.18-1,2.69,1.69,4.75,1.24.78-.17-1.62-5.4.82-6.3S464.81,506,467.27,504.78Z" style="fill:#f9cbcb"/><path d="M456.56,554.71s11.49,5.69,20.49,7.63a23.37,23.37,0,0,0,5.82.6c11.58-.64,33.12-13.76,33.12-13.76,8.83.47,17-5.75,17.55-9.26,1-6.27-8.74,3.55-11.17,1.16,0,0,4.11-5.37,1.63-6.85s-9.36,8.49-9.36,8.49a99.2,99.2,0,0,0-31.28,5.85c-1.19-.7-2.37-1.4-3.57-2.08-8.68-4.82-17.94-8.6-28.49-9.16C449.56,544.64,452.13,550.08,456.56,554.71Z" style="fill:#f9cbcb"/><path d="M475,563.52,481,545.05c-8.68-4.82-26.19-16-30.66-6.48C444.38,551.32,466,561.58,475,563.52Z" style="fill:#ffcd75"/><path d="M860.2,620.77c-1,2.85-5.07,7.2-9,10.82s-13.93,7.85-13.93,7.85l-.12,22.48H813.09l-2.15-22.59s-7.59,1.33-11.51,1.64c-4.3.33-9.26.36-11.25-1-6.8-4.64-12.14-30.54-12.14-30.54s-3.94-4.67,0-7.88,5,2.47,5,2.47,2.89-3.3,2.89-.52-2.56,4.58-2.56,4.58l11.43,19.47,3.51-1.67,13.73-6.56,10.64-3.68h8l4.42,1.74a10.44,10.44,0,0,0,7.77-.09,32.72,32.72,0,0,1,6-1.82,47.29,47.29,0,0,1,5.28-.78,57.61,57.61,0,0,1,.28-23.08s-5.4-4.37-2.14-4.74c.86-.09,2,1.86,2.68,1,.8-1.11,1-6.24,1.78-5.59a8.73,8.73,0,0,1,2,9.25S862.5,614,860.2,620.77Z" style="fill:#f9cbcb"/><path d="M867.6,513.69h-6.7a10,10,0,0,0-9.95,10v45.78a10,10,0,0,0,9.95,10h6.7a32.85,32.85,0,1,0,0-65.7Z" style="fill:#73b4ff"/><path d="M860.9,513.69h6.7c.94,0,1.86,0,2.77.13a9.92,9.92,0,0,0-.35,2.58v45.78a10,10,0,0,0,10,10h6.7c.52,0,1,0,1.55,0a32.74,32.74,0,0,1-20.63,7.29h-6.7a10,10,0,0,1-9.95-10V523.65A10,10,0,0,1,860.9,513.69Z" style="fill:#4791e6"/><path d="M758.14,482.59h49.22a45,45,0,0,1,45,45v32a45,45,0,0,1-45,45H758.14a9.54,9.54,0,0,1-9.54-9.53v-103A9.54,9.54,0,0,1,758.14,482.59Z" style="fill:#73b4ff"/><path d="M749,596.38H798.2a45,45,0,0,0,45-45V519.31a44.82,44.82,0,0,0-10.51-28.91,45,45,0,0,1,19.67,37.21v32a45,45,0,0,1-45,45H758.14a9.53,9.53,0,0,1-9.45-8.31Z" style="fill:#4791e6"/><path d="M848.37,488.31a14.5,14.5,0,0,0-14.5,14.5v81.64a14.5,14.5,0,0,0,29,0V502.81A14.5,14.5,0,0,0,848.37,488.31Z" style="fill:#73b4ff"/><path d="M844.27,488.91a14.42,14.42,0,0,0-2.53,8.17v81.65a14.5,14.5,0,0,0,14.5,14.5,14.22,14.22,0,0,0,4.1-.6,14.5,14.5,0,0,1-26.47-8.18V502.81A14.5,14.5,0,0,1,844.27,488.91Z" style="fill:#4791e6"/><ellipse cx="758.93" cy="543.63" rx="22.94" ry="61.04" style="fill:#4791e6"/><ellipse cx="752.8" cy="543.6" rx="21.75" ry="60.39" style="fill:#abd2ff"/><ellipse cx="751.08" cy="518.45" rx="5.82" ry="11.02" style="fill:#4791e6"/><ellipse cx="751.08" cy="564.95" rx="5.82" ry="12.16" style="fill:#4791e6"/><path d="M819.11,591.46a5.47,5.47,0,0,0,1.16-.58c.31-.28.32-.59.64-.85,1-.79,2.21-.58,3.38-.31,1.87.43,3.75.93,5,2.44.54.63.72,1.31,1.48,1.68a5.14,5.14,0,0,0,1.09.22c2.84.73,5,2.78,4.29,5.88-.22.9-.76,1.09-.95,2.12-.39,2.16,1.29,4.39-1.44,5.89a10.24,10.24,0,0,1-8.87.79c-3.74-1.38-5.54-6.29-6.71-10-1.16-1.11-2-2.32-1.81-4A4.34,4.34,0,0,1,819.11,591.46Z" style="fill:#30334d"/><polygon points="828.73 615.63 820.72 615.63 820.94 612.64 821.34 607.19 828.32 607.19 828.48 610.36 828.73 615.63" style="fill:#f9cbcb"/><path d="M828.48,610.36c-1.15,2.27-5.46,2.67-7.54,2.28l.4-5.45h7Z" style="fill:#f0b4b4"/><path d="M825.47,661.92l-1.87,9.63L821,685.06c-12.78,3.79-29.78,7.34-44.27-2.6-2.28,11.35-6.91,20.28-14,30-1.12,1.54-2.32,3.1-3.57,4.69l.39,7.41-26.68,1.94,19.58-11.12c.72-1.77,1.36-3.62,1.93-5.52,5-16.19,5.52-36,17.22-44.28,7.6-5.39,42.58-3.62,42.58-3.62Z" style="fill:#f9cbcb"/><path d="M856.51,724.52H838.58c-3.07.16-6.14.36-9.17.57-22.82,1.49-43.28,3.19-44.75-4.85-3.37-18.46,12.91-35.18,28.43-58.32H837.2c11.51,32.27-18.37,43-35.26,50.44,10.91-2.28,19.26-.37,28.2,3.22,1.7.67,3.42,1.42,5.18,2.2Z" style="fill:#f9cbcb"/><path d="M801.94,712.36c10.91-2.28,19.26-.37,28.2,3.22l-.29,3.74-.44,5.77c-22.82,1.49-43.28,3.19-44.75-4.85-3.37-18.46,12.91-35.18,28.43-58.32H837.2C848.71,694.19,818.83,704.9,801.94,712.36Z" style="fill:#30334d"/><path d="M823.6,671.55,821,685.06c-7.81,2.32-17.19,4.54-26.62,3.66a36.83,36.83,0,0,1-17.65-6.26c-2.28,11.35-6.91,20.28-14,30l-3.72-1.15-4.63-1.45c5-16.19,5.52-36,17.22-44.28,7.6-5.39,42.58-3.62,42.58-3.62h6.13Z" style="fill:#30334d"/><path d="M809.72,672.06l-15.38,16.66a36.83,36.83,0,0,1-17.65-6.26c-2.28,11.35-6.91,20.28-14,30l-3.72-1.15c7.35-11.48,12.51-22.75,15.34-33.81,6.89,3.34,14.48,8.69,19.92,7.18Z" style="fill:#1f2138"/><path d="M801.94,712.36c10.91-2.28,19.26-.37,28.2,3.22l-.29,3.74c-7.82-5.21-19.77-6.26-33.5-5.51,7-8.58,37.37-19.44,38.3-37.19a38.76,38.76,0,0,0-2.45-14.7h5C848.71,694.19,818.83,704.9,801.94,712.36Z" style="fill:#1f2138"/><path d="M839.51,639l.07,21a5,5,0,0,1-3.41,5.11l-.07,0c-8.17,2.55-15.09-2.92-24.1-3.3l-2.17-20.23s-8.56.28-12.47.59l-1-16.35,13.73-6.56,10.64-3.68c3.2,5.93,5.71,4.14,8,0,5.85.36,11.56,1.37,18.17-.17l5.44,15.67C847.45,634.47,839.51,639,839.51,639Z" style="fill:#d94559"/><path d="M810.1,630.59a32.9,32.9,0,0,0-.27,11s-8.56.28-12.47.59C809.1,639.38,803.86,634.94,810.1,630.59Z" style="fill:#b52134"/><path d="M839.58,660a5,5,0,0,1-3.41,5.11l-.07,0c1.15-13.06-3.92-17.15-.9-24.51l4.31-1.61Z" style="fill:#b52134"/><path d="M759.85,716.14c2.27,2.86,1.36,5.8.68,10.2H731.24c.57-8.68,10-6.34,19.49-10.3a3,3,0,0,1,2.26,0C754.8,716.69,758,717.89,759.85,716.14Z" style="fill:#30334d"/><path d="M837.55,718.5a10.94,10.94,0,0,1,.7-7.47,2.79,2.79,0,0,1,3.88-1.25l21.15,11.88a2,2,0,0,1,.44,3.2c-4.43,4.37-11.11-1.07-20.22-.34C838.28,724.93,840.44,719.32,837.55,718.5Z" style="fill:#30334d"/><path d="M818.46,597.58c-.37,4.18-2.18,9.36,1.78,12.68,2.51,2.11,8-.67,8.66-4.15,1.34-1.32,2.47-3.51.83-4.94-1.16-1-2.37,1.89-3.93,1-.59-.33.94-4.33-1.06-4.85S820.59,598.2,818.46,597.58Z" style="fill:#f9cbcb"/><path d="M626.75,13.05q0-6.17,3.44-9.61T639.77,0q6.29,0,9.7,3.38t3.4,9.46a15.52,15.52,0,0,1-1.49,7.25,10.54,10.54,0,0,1-4.3,4.4,14.16,14.16,0,0,1-7,1.58A16.18,16.18,0,0,1,633,24.71a10.68,10.68,0,0,1-4.53-4.3A14.24,14.24,0,0,1,626.75,13.05Zm7.79,0q0,3.83,1.42,5.49a5.36,5.36,0,0,0,7.75,0c.91-1.08,1.37-3,1.37-5.86,0-2.37-.48-4.11-1.43-5.2a4.9,4.9,0,0,0-3.9-1.64A4.7,4.7,0,0,0,636,7.57Q634.54,9.24,634.54,13.08Z" style="fill:#ff4800"/><path d="M655.74,16.56a9.14,9.14,0,0,1,2.82-6.89A10.56,10.56,0,0,1,666.18,7q5.49,0,8.29,3.18a9.24,9.24,0,0,1,2.25,6.31,9.16,9.16,0,0,1-2.8,6.91,10.67,10.67,0,0,1-7.72,2.69,10.84,10.84,0,0,1-7.12-2.24A8.94,8.94,0,0,1,655.74,16.56Zm7,0a5.5,5.5,0,0,0,1,3.61,3.23,3.23,0,0,0,5,0,5.69,5.69,0,0,0,1-3.7,5.39,5.39,0,0,0-1-3.53,3.09,3.09,0,0,0-2.43-1.16A3.17,3.17,0,0,0,663.75,13,5.46,5.46,0,0,0,662.76,16.54Z" style="fill:#ff4800"/><path d="M680.12,32.58V7.38h6.55v2.7a8.67,8.67,0,0,1,2.5-2.31A7.12,7.12,0,0,1,692.55,7a6.56,6.56,0,0,1,5.67,2.81,11.54,11.54,0,0,1,2,6.93c0,3-.72,5.35-2.18,7a7.15,7.15,0,0,1-5.52,2.4,7.6,7.6,0,0,1-2.95-.55,7.08,7.08,0,0,1-2.38-1.63v8.71Zm7-16a4.79,4.79,0,0,0,.91,3.21,2.93,2.93,0,0,0,2.3,1.05,2.54,2.54,0,0,0,2-1,5.46,5.46,0,0,0,.83-3.42,5.1,5.1,0,0,0-.86-3.26,2.66,2.66,0,0,0-2.1-1A2.82,2.82,0,0,0,688,13.15,5.28,5.28,0,0,0,687.14,16.56Z" style="fill:#ff4800"/><path d="M702.34,20.56l6.94-.65a3.38,3.38,0,0,0,1.21,1.77,4.28,4.28,0,0,0,4.25-.07,1.33,1.33,0,0,0,.6-1.11,1.29,1.29,0,0,0-.79-1.17,15.26,15.26,0,0,0-3-.72,31.23,31.23,0,0,1-5.07-1.18,5.37,5.37,0,0,1-2.39-1.83,4.78,4.78,0,0,1-1-2.93,4.79,4.79,0,0,1,1-3.11,6.24,6.24,0,0,1,2.89-1.95A15.31,15.31,0,0,1,712,7a17.22,17.22,0,0,1,4.83.5A6.26,6.26,0,0,1,719.4,9a8,8,0,0,1,1.73,2.84l-6.64.65a2.29,2.29,0,0,0-.85-1.29,3.53,3.53,0,0,0-2-.55,2.84,2.84,0,0,0-1.73.42,1.25,1.25,0,0,0-.54,1,1.1,1.1,0,0,0,.69,1,11.41,11.41,0,0,0,3,.61,20.66,20.66,0,0,1,5.19,1.1,5.71,5.71,0,0,1,2.61,2,5,5,0,0,1,.9,2.87,5.72,5.72,0,0,1-1,3.08,6.44,6.44,0,0,1-3,2.37,14.46,14.46,0,0,1-5.6.89c-3.34,0-5.71-.48-7.13-1.43A6.41,6.41,0,0,1,702.34,20.56Z" style="fill:#ff4800"/><path d="M736.85.43h7.48V6.17l-1.45,11.54h-4.62L736.85,6.17Zm.25,19h7v6.18h-7Z" style="fill:#ff4800"/><text transform="translate(378.39 120.68)" style="font-size:72px;fill:#ff4800;font-family:Poppins-SemiBold, Poppins;font-weight:600">Connection Error</text><rect x="80.4" y="726.58" width="1216" height="2.28" rx="0.94" style="fill:#30334d"/><rect y="726.58" width="59.38" height="2.28" rx="0.94" style="fill:#30334d"/><rect x="1048.69" y="759.17" width="59.38" height="2.28" rx="0.94" style="fill:#30334d"/><rect x="773.37" y="759.17" width="235.67" height="2.28" rx="0.94" style="fill:#30334d"/><path d="M401.82,278.62l-29.39-19.48a7.63,7.63,0,0,1,3.5-.84h51.79a7.63,7.63,0,0,1,3.5.84Z" style="fill:#dfe2f7"/><path d="M435.47,266.05v29.08a7.75,7.75,0,0,1-7.75,7.76H375.93a7.75,7.75,0,0,1-7.75-7.76V266.05a7.72,7.72,0,0,1,1.6-4.71l32,21.23,32.05-21.23A7.65,7.65,0,0,1,435.47,266.05Z" style="fill:#dfe2f7"/><path d="M196.15,353.09c-3.34-3.08-7.05-2.46-10.05-.14-1.68,1.3-3.84.93-5.64-.2-4.78-3-9.23-6.42-12.29-11.83-1-1.86-1.67-3.95-.41-5.67,5.47-7.49-3.4-16.43-10.87-9.95l-4.09,4.21h0c-3,2.61-4.75,5.58-2.43,9.64C157.13,351,167.43,361.35,182,370c5.91,3.49,9.64-1.71,13.1-5.27h0C198.73,361.83,199.66,356.45,196.15,353.09Z" style="fill:#dfe2f7"/><path d="M331.4,394.23c0-.18,0-.36,0-.53s0-.64-.05-.95c0-.08,0-.16,0-.24-.05-.6-.12-1.2-.22-1.79a23.12,23.12,0,0,0-1-3.83c-.12-.36-.26-.71-.4-1.07l-.18-.41c-.2-.47-.42-.93-.65-1.39l-.22-.41a22.92,22.92,0,0,0-2.77-4.06l-.37-.42c-.32-.36-.66-.71-1-1.06s-.51-.5-.78-.73a23.22,23.22,0,0,0-31.11,0c-.27.23-.53.48-.79.73s-.68.7-1,1.06l-.36.42a23,23,0,0,0-2.78,4.06l-.21.41c-.24.46-.46.92-.66,1.39-.05.14-.11.28-.17.41-.14.36-.28.71-.41,1.07a23.1,23.1,0,0,0-1,3.83c-.1.59-.18,1.19-.23,1.79,0,.08,0,.16,0,.24,0,.31,0,.63-.06.95s0,.35,0,.53v.26c0,.33,0,.67,0,1,0,.65.09,1.29.17,1.92a18.06,18.06,0,0,0,.3,1.79c.06.3.13.59.2.88.12.5.27,1,.42,1.48.25.76.53,1.49.85,2.22,0,.1.1.21.15.32.23.5.48,1,.74,1.47a3.37,3.37,0,0,0,.19.32,17,17,0,0,0,.95,1.53c.35.51.71,1,1.09,1.48a23.39,23.39,0,0,0,1.7,1.89,21.62,21.62,0,0,0,2,1.8,23.16,23.16,0,0,0,14.39,5h.08a23.19,23.19,0,0,0,18.09-8.7c.39-.48.75-1,1.1-1.48s.65-1,.95-1.53a3.37,3.37,0,0,0,.19-.32c.26-.48.51-1,.74-1.47l.15-.32c.31-.73.6-1.46.84-2.22.16-.48.3-1,.43-1.48.07-.29.14-.58.2-.88.12-.59.22-1.19.3-1.79s.14-1.27.16-1.92c0-.33,0-.67,0-1A2.17,2.17,0,0,0,331.4,394.23Zm-2.54-3.51c.11.59.19,1.19.25,1.79a1.94,1.94,0,0,1,0,.24h-6.31a34.76,34.76,0,0,0-.78-5.86h5.73A20.74,20.74,0,0,1,328.86,390.72Zm-8.09,3.87a33.63,33.63,0,0,1-.44,5.49H316c.16-1.79.24-3.65.24-5.54,0-.1,0-.21,0-.31h4.58Zm-25.18,0c0-.12,0-.24,0-.36h4.57v.31c0,1.89.08,3.75.23,5.54H296A33.62,33.62,0,0,1,295.59,394.59Zm18.79,0c0,1.92-.09,3.78-.26,5.54h-5v-5.85h5.29Zm-12.39,0v-.31h5.29v5.85h-5C302.08,398.32,302,396.46,302,394.54Zm7.1-19.75a6.63,6.63,0,0,1,2.55,3.28h-2.55Zm-1.81,0v3.28h-2.55A6.53,6.53,0,0,1,307.28,374.79Zm0,4.76v5.86H302.7a35.63,35.63,0,0,1,1.44-5.86Zm0,7.34v5.86H302a53.37,53.37,0,0,1,.46-5.86Zm0,14.67v5.86h-3.79a43.27,43.27,0,0,1-1.09-5.86Zm0,7.34v5.39c-1.28-.63-2.44-2.58-3.35-5.39Zm1.81,5.39V408.9h3.35C311.53,411.71,310.36,413.66,309.09,414.29Zm0-6.87v-5.86H314a43.19,43.19,0,0,1-1.1,5.86Zm0-14.67v-5.86h4.8c.24,1.84.4,3.81.46,5.86Zm0-7.34v-5.86h3.14a35.63,35.63,0,0,1,1.44,5.86Zm5.18-5.86h2.61a23.84,23.84,0,0,1,2.6,5.86h-3.93A43.18,43.18,0,0,0,314.27,379.55Zm-.49-1.48a18.54,18.54,0,0,0-1.42-3.11,12.44,12.44,0,0,1,3.47,3.11ZM304,375a17.78,17.78,0,0,0-1.42,3.11h-2.06A12.34,12.34,0,0,1,304,375Zm-1.91,4.59a41.72,41.72,0,0,0-1.28,5.86h-3.93a23.47,23.47,0,0,1,2.6-5.86Zm-1.48,7.34c-.23,1.87-.37,3.84-.42,5.86h-4.55a31.94,31.94,0,0,1,.84-5.86Zm-.07,14.67a48.62,48.62,0,0,0,1,5.86h-3.26a26.88,26.88,0,0,1-2-5.86Zm1.37,7.34c.14.5.28,1,.44,1.46a19.32,19.32,0,0,0,1.74,3.92,14.11,14.11,0,0,1-5.05-5.38Zm10.35,5.38a19.89,19.89,0,0,0,1.74-3.92c.15-.47.3-1,.44-1.46h2.87A14.18,14.18,0,0,1,312.27,414.28Zm2.56-6.86a48.62,48.62,0,0,0,1-5.86h4.23a26.88,26.88,0,0,1-2,5.86Zm1.34-14.67c-.05-2-.2-4-.42-5.86h4.13a32.82,32.82,0,0,1,.84,5.86Zm10-9.14c.09.14.16.28.24.41.27.45.51.92.75,1.39h-5.47a27,27,0,0,0-2.34-5.86h3.58A21.17,21.17,0,0,1,326.14,383.61Zm-4.93-5.54h-2.78a18.83,18.83,0,0,0-2.45-3,20.89,20.89,0,0,1,4.24,2.29C320.56,377.57,320.89,377.81,321.21,378.07Zm-25.06-.73a20.62,20.62,0,0,1,4.24-2.29,17.81,17.81,0,0,0-2.45,3h-2.78C295.48,377.81,295.81,377.57,296.15,377.34ZM290,384l.24-.41a21.62,21.62,0,0,1,3.25-4.06h3.58a27.49,27.49,0,0,0-2.35,5.86h-5.46C289.47,384.94,289.71,384.47,290,384Zm-2.73,8.49c.06-.6.14-1.2.25-1.79a20.74,20.74,0,0,1,1.09-3.83h5.74a35.81,35.81,0,0,0-.79,5.86h-6.31C287.24,392.67,287.24,392.59,287.25,392.51Zm.45,6.69a17.15,17.15,0,0,1-.33-1.79q-.14-.95-.18-1.92c0-.33,0-.67,0-1v-.26h6.34c0,.12,0,.24,0,.36a36.45,36.45,0,0,0,.42,5.49h-6C287.84,399.79,287.77,399.5,287.7,399.2Zm2.87,6.69-.21-.32q-.45-.72-.84-1.47l-.17-.32a19.75,19.75,0,0,1-1-2.22h5.78a29,29,0,0,0,1.79,5.86h-4.29A18.63,18.63,0,0,1,290.57,405.89Zm4.45,4.9A21.77,21.77,0,0,1,293,408.9h3.7c.31.62.64,1.22,1,1.79a19,19,0,0,0,2.37,3.08,22,22,0,0,1-2.38-1.18A21,21,0,0,1,295,410.79Zm26.33,0a22.62,22.62,0,0,1-2.63,1.8,22,22,0,0,1-2.38,1.18,19,19,0,0,0,2.37-3.08c.35-.57.69-1.17,1-1.79h3.69A21.65,21.65,0,0,1,321.35,410.79Zm5.67-7c-.06.1-.11.21-.17.32-.26.5-.55,1-.85,1.47a2.2,2.2,0,0,1-.21.32,16.44,16.44,0,0,1-1.1,1.53H320.4a30.32,30.32,0,0,0,1.79-5.86H328A21.79,21.79,0,0,1,327,403.78Zm-4.56-3.7a36.46,36.46,0,0,0,.41-5.49v-.36h6.33v.26c0,.33,0,.67,0,1q0,1-.18,1.92c-.08.61-.2,1.21-.33,1.79-.07.3-.15.59-.23.88Z" style="fill:#dfe2f7"/><path d="M927.46,278.62l29.4-19.48a7.67,7.67,0,0,0-3.51-.84H901.57a7.64,7.64,0,0,0-3.51.84Z" style="fill:#dfe2f7"/><path d="M893.81,266.05v29.08a7.75,7.75,0,0,0,7.76,7.76h51.78a7.76,7.76,0,0,0,7.76-7.76V266.05a7.72,7.72,0,0,0-1.6-4.71l-32,21.23-32.05-21.23A7.72,7.72,0,0,0,893.81,266.05Z" style="fill:#dfe2f7"/><path d="M1159.72,375.43c3.34-3.08,7-2.46,10-.14,1.67,1.29,3.84.92,5.63-.21,4.78-3,9.23-6.41,12.3-11.83,1-1.86,1.66-3.94.4-5.67-5.47-7.49,3.41-16.43,10.87-9.95l4.1,4.22h0c3,2.6,4.74,5.57,2.43,9.64-6.77,11.87-17.06,22.2-31.65,30.81-5.91,3.49-9.63-1.7-13.09-5.26h0C1157.14,384.16,1156.2,378.78,1159.72,375.43Z" style="fill:#dfe2f7"/><path d="M997.88,394.49c0,.33,0,.67,0,1,0,.65.09,1.29.17,1.92s.18,1.2.3,1.79c.06.3.13.59.2.88.12.5.27,1,.42,1.48.25.76.53,1.49.85,2.22l.15.32c.23.5.48,1,.74,1.47a3.37,3.37,0,0,0,.19.32,17,17,0,0,0,1,1.53c.34.51.71,1,1.09,1.48a23.39,23.39,0,0,0,1.7,1.89,21.62,21.62,0,0,0,2,1.8,23.15,23.15,0,0,0,14.38,5h.08a23.19,23.19,0,0,0,18.1-8.7c.39-.48.75-1,1.09-1.48s.66-1,1-1.53a2,2,0,0,0,.18-.32q.4-.72.75-1.47l.15-.32a22,22,0,0,0,.84-2.22c.16-.48.3-1,.43-1.48.07-.29.14-.58.2-.88.12-.59.22-1.19.3-1.79s.14-1.27.16-1.92c0-.33,0-.67,0-1a2.17,2.17,0,0,0,0-.26c0-.18,0-.36,0-.53s0-.64,0-.95c0-.08,0-.16,0-.24,0-.6-.12-1.2-.22-1.79a23.12,23.12,0,0,0-1-3.83c-.13-.36-.26-.71-.4-1.07l-.18-.41c-.2-.47-.42-.93-.65-1.39l-.22-.41a22.92,22.92,0,0,0-2.77-4.06l-.37-.42c-.32-.36-.66-.72-1-1.06s-.51-.5-.78-.73a23.22,23.22,0,0,0-31.11,0c-.27.23-.53.48-.78.73s-.69.7-1,1.06l-.37.42a23,23,0,0,0-2.78,4.06l-.22.41c-.23.46-.44.92-.65,1.39,0,.14-.11.28-.17.41-.14.36-.28.71-.4,1.07a23.12,23.12,0,0,0-1,3.83c-.1.59-.17,1.19-.23,1.79,0,.08,0,.16,0,.24,0,.31-.05.63-.06.95s0,.35,0,.53Zm3.63-7.6h5.74a34.76,34.76,0,0,0-.79,5.86h-6.3c0-.08,0-.16,0-.24.06-.6.14-1.2.25-1.79A20.74,20.74,0,0,1,1001.51,386.89Zm7,7.34h4.57v.31c0,1.89.08,3.75.23,5.54H1009a33.62,33.62,0,0,1-.45-5.49C1008.51,394.47,1008.52,394.35,1008.52,394.23Zm24.73,5.85h-4.37c.16-1.79.23-3.65.23-5.54v-.31h4.58v.36A33.63,33.63,0,0,1,1033.25,400.08Zm-18.34-5.85h5.29v5.85h-5c-.16-1.76-.25-3.62-.25-5.54Zm12.13,5.85h-5v-5.85h5.3v.31C1027.3,396.46,1027.21,398.32,1027,400.08Zm-6.84-22h-2.55a6.53,6.53,0,0,1,2.55-3.28Zm4.36,0H1022v-3.28A6.59,6.59,0,0,1,1024.56,378.07Zm.58,1.48a34.59,34.59,0,0,1,1.45,5.86H1022v-5.86Zm1.67,7.34c.24,1.84.4,3.81.46,5.86H1022v-5.86Zm.08,14.67a43.19,43.19,0,0,1-1.1,5.86H1022v-5.86Zm-1.53,7.34c-.91,2.81-2.08,4.76-3.36,5.39V408.9Zm-8.51,0h3.35v5.39C1018.92,413.66,1017.76,411.71,1016.85,408.9Zm-.44-1.48a43.27,43.27,0,0,1-1.09-5.86h4.88v5.86Zm-1.48-14.67a55.88,55.88,0,0,1,.47-5.86h4.8v5.86Zm.69-7.34a34.64,34.64,0,0,1,1.44-5.86h3.14v5.86Zm-1.88,0h-3.93a23.47,23.47,0,0,1,2.6-5.86h2.6A43.22,43.22,0,0,0,1013.74,385.41Zm-.29-7.34a12.44,12.44,0,0,1,3.47-3.11,19.38,19.38,0,0,0-1.42,3.11Zm15.3,0h-2a18.54,18.54,0,0,0-1.42-3.11A12.44,12.44,0,0,1,1028.75,378.07Zm1,1.48a23.84,23.84,0,0,1,2.6,5.86h-3.94a41.75,41.75,0,0,0-1.27-5.86Zm3,7.34a32.82,32.82,0,0,1,.84,5.86h-4.55c0-2-.2-4-.42-5.86Zm.16,14.67a26.87,26.87,0,0,1-2,5.86h-3.26a48.62,48.62,0,0,0,1-5.86Zm-2.72,7.34a14.18,14.18,0,0,1-5,5.38,19.89,19.89,0,0,0,1.74-3.92c.15-.47.3-1,.44-1.46Zm-18.27,0h2.86c.14.5.29,1,.45,1.46a18.79,18.79,0,0,0,1.74,3.92A14.11,14.11,0,0,1,1012,408.9Zm-.77-1.48a26.88,26.88,0,0,1-2-5.86h4.23a50.73,50.73,0,0,0,1,5.86Zm-2.64-14.67a31.93,31.93,0,0,1,.85-5.86h4.13c-.23,1.87-.37,3.84-.42,5.86Zm-2.17-13.2H1010a27,27,0,0,0-2.35,5.86h-5.46c.23-.47.48-.94.74-1.39l.24-.41A21.23,21.23,0,0,1,1006.39,379.55Zm2.68-2.21a20.62,20.62,0,0,1,4.24-2.29,17.81,17.81,0,0,0-2.45,3h-2.78C1008.4,377.81,1008.73,377.57,1009.07,377.34Zm25.06.73h-2.78a18.83,18.83,0,0,0-2.45-3,20.89,20.89,0,0,1,4.24,2.29C1033.47,377.57,1033.81,377.81,1034.13,378.07Zm5.92,7.34h-5.47a27.47,27.47,0,0,0-2.34-5.86h3.58a21.17,21.17,0,0,1,3.24,4.06l.25.41C1039.57,384.47,1039.82,384.94,1040.05,385.41Zm2,7.34h-6.31a34.76,34.76,0,0,0-.78-5.86h5.73a20.74,20.74,0,0,1,1.09,3.83c.11.59.2,1.19.26,1.79C1042,392.59,1042.05,392.67,1042.05,392.75Zm-.69,7.33h-6a35.19,35.19,0,0,0,.42-5.49v-.36h6.33a2.17,2.17,0,0,1,0,.26c0,.33,0,.67,0,1q0,1-.18,1.92c-.09.61-.2,1.21-.34,1.79C1041.51,399.5,1041.44,399.79,1041.36,400.08Zm-3.75,7.34h-4.29a30.32,30.32,0,0,0,1.79-5.86h5.78c-.28.76-.6,1.5-1,2.22-.06.1-.11.21-.17.32-.26.5-.55,1-.85,1.47a3.53,3.53,0,0,1-.21.32A18.52,18.52,0,0,1,1037.61,407.42Zm-6,5.17a22,22,0,0,1-2.38,1.18,19,19,0,0,0,2.37-3.08c.35-.57.68-1.17,1-1.79h3.69a23,23,0,0,1-2,1.89A22.62,22.62,0,0,1,1031.64,412.59Zm-25.76-3.69h3.7c.31.62.64,1.22,1,1.79a19,19,0,0,0,2.37,3.08,23,23,0,0,1-2.39-1.18,21.29,21.29,0,0,1-4.68-3.69Zm-4.56-7.34h5.78a29,29,0,0,0,1.79,5.86h-4.3c-.39-.49-.75-1-1.1-1.53l-.21-.32c-.3-.48-.58-1-.85-1.47,0-.11-.11-.22-.16-.32A19.75,19.75,0,0,1,1001.32,401.56Zm-.47-1.48c-.09-.29-.16-.58-.23-.88a17.15,17.15,0,0,1-.33-1.79c-.09-.63-.16-1.27-.19-1.92,0-.33,0-.67,0-1a2.17,2.17,0,0,1,0-.26h6.33c0,.12,0,.24,0,.36a36.45,36.45,0,0,0,.42,5.49Z" style="fill:#dfe2f7"/><path d="M663.07,302.21q-6.09,0-9.24-3.46a12.45,12.45,0,0,1-3.15-8.71,13.34,13.34,0,0,1,3.26-9q3.24-3.78,9.13-3.78,6.07,0,9.34,3.89a13.76,13.76,0,0,1,3.25,9.13,12,12,0,0,1-3.25,8.39Q669.16,302.21,663.07,302.21Zm3.57-37.36h-7.35l-6.51-69.71c-.14-2.66-.31-5-.52-7a52.3,52.3,0,0,1-.32-5.31,16.16,16.16,0,0,1,2.31-8.9q2.31-3.6,8.82-3.6,6.07,0,8.6,3.6a15.82,15.82,0,0,1,2.52,9.28c0,1.65,0,3.51-.1,5.59s-.25,4.2-.53,6.35Z" style="fill:#c8cbe3"/><path d="M656.2,460l1.66-28.29,9.6,1,.4-18.46,7.87,4.31.88-14.12s8.95,3.23,9.1,4.13-6.24,20.53-6.24,20.53l-4.57-4.46L674,440.83l-11.12-2.89Z" style="fill:#d94559"/><path d="M693.8,482.34l13.58-17.46,5.74,4.88,8.42-11.7,3.15,6.26,6.82-8.7s4.32,6,4,6.68-13.09,10.44-13.09,10.44l-1-4.89-7.75,10-5.87-6.78Z" style="fill:#d94559"/><path d="M651.32,550.59l19.55,7-2.68,6.55,12.9,4.12-4.68,4.64,9.75,3.55s-4.13,5.62-4.8,5.54-13.13-8.65-13.13-8.65l4.09-2.29-11.19-4,4.35-7.21Z" style="fill:#d94559"/><path d="M160.14,504.88h0a.54.54,0,0,1-.54-.54s0-2.4.36-6.51a.53.53,0,0,1,.58-.49.54.54,0,0,1,.49.58c-.34,4.06-.35,6.4-.35,6.42A.54.54,0,0,1,160.14,504.88Z" style="fill:#3a67b3"/><path d="M162.16,485.47h-.09a.55.55,0,0,1-.44-.63c.72-4.25,1.61-8.56,2.65-12.83a.54.54,0,0,1,1.05.26c-1,4.24-1.92,8.53-2.63,12.75A.55.55,0,0,1,162.16,485.47Zm6.18-25.36a.51.51,0,0,1-.17,0,.54.54,0,0,1-.35-.68c1.32-4.15,2.81-8.3,4.41-12.33a.54.54,0,0,1,.7-.3.53.53,0,0,1,.3.7c-1.59,4-3.06,8.13-4.38,12.26A.54.54,0,0,1,168.34,460.11ZM178,435.86a.59.59,0,0,1-.23-.05.54.54,0,0,1-.25-.72c1.9-3.93,4-7.83,6.13-11.57a.54.54,0,0,1,.74-.2.55.55,0,0,1,.19.74c-2.15,3.72-4.2,7.59-6.09,11.5A.55.55,0,0,1,178,435.86Zm13.07-22.58a.55.55,0,0,1-.3-.09.54.54,0,0,1-.14-.75c2.46-3.6,5.09-7.13,7.81-10.52a.54.54,0,0,1,.84.68c-2.71,3.36-5.32,6.88-7.76,10.45A.53.53,0,0,1,191.06,413.28ZM207.41,393a.55.55,0,0,1-.37-.15.53.53,0,0,1,0-.76c3-3.16,6.11-6.25,9.33-9.19a.54.54,0,0,1,.73.8c-3.2,2.92-6.32,6-9.28,9.13A.52.52,0,0,1,207.41,393Zm168.2-3.12h-.23a.54.54,0,0,1-.53-.55.51.51,0,0,1,.55-.53h.21c3.75,0,7.67-1.36,11.64-4.06a.54.54,0,1,1,.6.89C383.7,388.41,379.58,389.84,375.61,389.84ZM364,384.29a.53.53,0,0,1-.41-.2,21.9,21.9,0,0,1-4.72-12.31.54.54,0,0,1,.5-.57.53.53,0,0,1,.58.49,20.7,20.7,0,0,0,4.47,11.7.55.55,0,0,1-.42.89Zm32.06-8.2a.41.41,0,0,1-.19,0,.54.54,0,0,1-.32-.69,11.79,11.79,0,0,0,.77-4.21,15,15,0,0,0-2.4-7.78.53.53,0,0,1,.18-.74.55.55,0,0,1,.74.18,16,16,0,0,1,2.56,8.34,13,13,0,0,1-.84,4.59A.53.53,0,0,1,396.1,376.09Zm-169.41-.7a.51.51,0,0,1-.42-.21.52.52,0,0,1,.09-.75c3.4-2.66,7-5.24,10.61-7.67a.52.52,0,0,1,.74.15.53.53,0,0,1-.14.74c-3.61,2.42-7.16,5-10.55,7.63A.57.57,0,0,1,226.69,375.39Zm21.68-14.51a.54.54,0,0,1-.27-1c3.81-2.17,7.71-4.2,11.62-6.05a.53.53,0,0,1,.71.25.54.54,0,0,1-.25.72c-3.88,1.84-7.76,3.86-11.54,6A.54.54,0,0,1,248.37,360.88Zm113.29-1.34a.52.52,0,0,1-.21,0,.54.54,0,0,1-.28-.71A33.87,33.87,0,0,1,368.69,348a.55.55,0,0,1,.76,0,.54.54,0,0,1,0,.76,32.92,32.92,0,0,0-7.28,10.49A.55.55,0,0,1,361.66,359.54Zm23.66-5.15a.5.5,0,0,1-.31-.1A63.13,63.13,0,0,0,373.73,348a.54.54,0,0,1-.28-.71.55.55,0,0,1,.71-.28,64.74,64.74,0,0,1,11.48,6.42.54.54,0,0,1-.32,1ZM272,349.72a.54.54,0,0,1-.2-1c4.09-1.56,8.26-3,12.41-4.19a.54.54,0,0,1,.31,1c-4.13,1.21-8.27,2.61-12.33,4.17A.63.63,0,0,1,272,349.72Zm89.7-6.06a.39.39,0,0,1-.15,0,114.23,114.23,0,0,0-12.69-2.77.54.54,0,0,1,.18-1.07,118.75,118.75,0,0,1,12.81,2.8.55.55,0,0,1,.37.67A.53.53,0,0,1,361.65,343.66ZM297,342.38a.54.54,0,0,1-.53-.43.54.54,0,0,1,.42-.64c4.28-.88,8.63-1.59,12.92-2.11a.54.54,0,1,1,.13,1.07c-4.27.51-8.59,1.22-12.83,2.1ZM379.43,341a.56.56,0,0,1-.46-.25.55.55,0,0,1,.17-.75,121.1,121.1,0,0,1,11.45-6.39.54.54,0,1,1,.47,1,120,120,0,0,0-11.34,6.33A.52.52,0,0,1,379.43,341Zm-43.5-1.55h0c-4.26-.25-8.64-.31-13-.17a.56.56,0,0,1-.56-.52.55.55,0,0,1,.53-.56c4.39-.14,8.81-.08,13.1.18a.54.54,0,0,1,0,1.07Zm66.83-10.12a.54.54,0,0,1-.5-.34.53.53,0,0,1,.3-.7c3.71-1.51,7.72-3,12.24-4.61a.54.54,0,0,1,.36,1c-4.51,1.59-8.5,3.09-12.2,4.59A.71.71,0,0,1,402.76,329.33Zm24.61-8.78a.56.56,0,0,1-.52-.37.54.54,0,0,1,.35-.68L435,317l4.59-1.48a.54.54,0,0,1,.34,1l-4.6,1.48-7.84,2.54A.45.45,0,0,1,427.37,320.55Zm24.83-8.15a.55.55,0,0,1-.51-.36.56.56,0,0,1,.34-.69c4.61-1.59,8.61-3.06,12.24-4.49a.54.54,0,0,1,.7.3.53.53,0,0,1-.3.7c-3.65,1.44-7.67,2.92-12.29,4.51Zm24.23-9.75a.54.54,0,0,1-.24-1,95.28,95.28,0,0,0,11.26-6.45.54.54,0,0,1,.6.9,95.12,95.12,0,0,1-11.38,6.52A.52.52,0,0,1,476.43,302.65Zm21.3-14.83a.51.51,0,0,1-.37-.15.54.54,0,0,1,0-.76,41.09,41.09,0,0,0,7.27-10.52.53.53,0,0,1,.72-.26.55.55,0,0,1,.25.72,41.94,41.94,0,0,1-7.45,10.8A.56.56,0,0,1,497.73,287.82ZM508.6,264.7h-.06a.53.53,0,0,1-.47-.6c.1-.91.18-1.85.24-2.79.07-1.37.11-2.74.11-4.08,0-2.05-.09-4.08-.27-6a.55.55,0,0,1,.49-.59.53.53,0,0,1,.59.49c.18,2,.27,4.06.27,6.14,0,1.36,0,2.75-.12,4.14-.05,1-.13,1.92-.24,2.86A.54.54,0,0,1,508.6,264.7Zm-2.46-25.78a.55.55,0,0,1-.52-.37,53,53,0,0,0-5.39-11.69.55.55,0,0,1,.17-.75.56.56,0,0,1,.75.18,54.49,54.49,0,0,1,5.5,11.93.54.54,0,0,1-.35.68Zm-13.54-22a.54.54,0,0,1-.39-.16,68,68,0,0,0-10-8.23.55.55,0,0,1-.14-.75.55.55,0,0,1,.75-.15A69.73,69.73,0,0,1,493,216a.54.54,0,0,1-.38.92Zm-21.35-14.81a.53.53,0,0,1-.24-.06,113.73,113.73,0,0,0-12-5,.53.53,0,0,1-.33-.68.54.54,0,0,1,.69-.34,116.74,116.74,0,0,1,12.11,5,.54.54,0,0,1,.25.72A.52.52,0,0,1,471.25,202.11Zm-24.57-8.74h-.13c-4.07-1-8.36-1.94-12.75-2.7a.53.53,0,0,1-.43-.62.53.53,0,0,1,.62-.44c4.41.77,8.73,1.68,12.82,2.71a.54.54,0,0,1-.13,1.06Z" style="fill:#3a67b3"/><path d="M420.69,188.83h-.05c-2.13-.22-4.29-.42-6.44-.59a.54.54,0,0,1,.09-1.08c2.15.17,4.33.37,6.46.6a.54.54,0,0,1-.06,1.08Z" style="fill:#3a67b3"/><polygon points="423.44 189.82 406.46 188.54 412.69 180.69 423.44 189.82" style="fill:#21488a"/><polygon points="407.41 191.42 386.36 181.97 413.71 184.44 407.41 191.42" style="fill:#3a67b3"/><polygon points="386.34 181.94 422.26 170.87 416.38 178.03 386.34 181.94" style="fill:#3a67b3"/><polygon points="386.36 181.97 413.76 184.53 423.44 189.82 416.4 177.91 386.36 181.97" style="fill:#335b9e"/><path d="M1163.73,504.88h0a.54.54,0,0,0,.54-.54s0-2.4-.36-6.51a.53.53,0,0,0-.58-.49.55.55,0,0,0-.5.58c.35,4.06.36,6.4.36,6.42A.54.54,0,0,0,1163.73,504.88Z" style="fill:#3a67b3"/><path d="M1161.17,485c-.71-4.22-1.6-8.51-2.63-12.75a.53.53,0,0,1,.39-.65.54.54,0,0,1,.66.39c1,4.27,1.93,8.58,2.64,12.83a.54.54,0,0,1-.44.63h-.09A.54.54,0,0,1,1161.17,485ZM1155,459.73c-1.32-4.13-2.8-8.26-4.39-12.26a.54.54,0,1,1,1-.4c1.61,4,3.09,8.18,4.42,12.33a.54.54,0,0,1-.36.68.41.41,0,0,1-.16,0A.53.53,0,0,1,1155,459.73Zm-9.63-24.17c-1.89-3.91-3.94-7.78-6.1-11.5a.54.54,0,0,1,.94-.54c2.16,3.74,4.23,7.64,6.13,11.57a.54.54,0,0,1-.25.72.69.69,0,0,1-.24.05A.53.53,0,0,1,1145.39,435.56Zm-13-22.51c-2.45-3.57-5.06-7.09-7.76-10.45a.54.54,0,0,1,.08-.76.55.55,0,0,1,.76.08c2.72,3.39,5.35,6.92,7.81,10.52a.55.55,0,0,1-.14.75.59.59,0,0,1-.31.09A.53.53,0,0,1,1132.36,413.05Zm-16.3-20.26c-3-3.14-6.07-6.21-9.27-9.13a.54.54,0,1,1,.72-.8c3.22,2.94,6.36,6,9.34,9.19a.54.54,0,0,1,0,.76.51.51,0,0,1-.37.15A.56.56,0,0,1,1116.06,392.79Zm-180-7.2a.54.54,0,0,1,.61-.89c4,2.7,7.89,4.06,11.64,4.06h.21a.52.52,0,0,1,.55.53.55.55,0,0,1-.54.55h-.22C944.29,389.84,940.17,388.41,936,385.59Zm23.47-1.43a.54.54,0,0,1-.07-.76,20.77,20.77,0,0,0,4.47-11.7.52.52,0,0,1,.57-.49.54.54,0,0,1,.5.57,21.82,21.82,0,0,1-4.71,12.31.55.55,0,0,1-.42.2A.5.5,0,0,1,959.48,384.16Zm-32.22-8.42a13,13,0,0,1-.84-4.59,16,16,0,0,1,2.57-8.34.54.54,0,1,1,.92.56,14.89,14.89,0,0,0-2.41,7.78,12,12,0,0,0,.77,4.21.52.52,0,0,1-.31.69.43.43,0,0,1-.19,0A.54.54,0,0,1,927.26,375.74Zm169.58-.46c-3.38-2.65-6.93-5.21-10.54-7.63a.54.54,0,1,1,.6-.89c3.63,2.43,7.2,5,10.61,7.67a.54.54,0,0,1,.09.75.53.53,0,0,1-.43.21A.59.59,0,0,1,1096.84,375.28Zm-21.61-14.47c-3.78-2.15-7.66-4.17-11.54-6a.54.54,0,1,1,.46-1c3.9,1.85,7.81,3.88,11.61,6.05a.53.53,0,0,1-.26,1A.52.52,0,0,1,1075.23,360.81Zm-113.52-1.59a32.79,32.79,0,0,0-7.29-10.49.54.54,0,0,1,0-.76.55.55,0,0,1,.76,0,33.87,33.87,0,0,1,7.52,10.83.54.54,0,0,1-.29.71.54.54,0,0,1-.7-.28Zm-23.61-5.06a.54.54,0,0,1,.13-.75A64.29,64.29,0,0,1,949.7,347a.55.55,0,0,1,.71.28.54.54,0,0,1-.27.71,62.78,62.78,0,0,0-11.28,6.31.55.55,0,0,1-.76-.13Zm113.63-4.47c-4.06-1.56-8.21-3-12.33-4.17a.54.54,0,1,1,.3-1c4.15,1.22,8.33,2.63,12.41,4.19a.54.54,0,0,1-.19,1A.58.58,0,0,1,1051.73,349.69Zm-90-6.42a.54.54,0,0,1,.37-.67,118.75,118.75,0,0,1,12.81-2.8.54.54,0,1,1,.17,1.07,114.23,114.23,0,0,0-12.69,2.77.39.39,0,0,1-.15,0A.52.52,0,0,1,961.7,343.27Zm65.08-.9c-4.25-.88-8.57-1.59-12.84-2.1a.55.55,0,0,1-.47-.6.53.53,0,0,1,.6-.47c4.3.52,8.65,1.23,12.93,2.11a.54.54,0,0,1-.11,1.07Zm-82.63-1.46a120.23,120.23,0,0,0-11.35-6.33.54.54,0,0,1,.48-1A121.1,121.1,0,0,1,944.73,340a.54.54,0,0,1-.29,1A.52.52,0,0,1,944.15,340.91Zm43.25-2a.53.53,0,0,1,.51-.57c4.29-.26,8.71-.32,13.1-.18a.54.54,0,0,1,.52.56.56.56,0,0,1-.55.52c-4.37-.14-8.75-.08-13,.17h0A.54.54,0,0,1,987.4,339Zm-66.5-9.66c-3.7-1.5-7.69-3-12.2-4.59a.54.54,0,0,1-.33-.69.55.55,0,0,1,.69-.33c4.53,1.6,8.53,3.1,12.25,4.61a.53.53,0,0,1,.3.7.55.55,0,0,1-.5.34A.78.78,0,0,1,920.9,329.29Zm-24.57-8.77L888.49,318l-4.59-1.48a.54.54,0,0,1,.33-1l4.59,1.48,7.85,2.55a.54.54,0,0,1-.17,1.05A.51.51,0,0,1,896.33,320.52Zm-24.84-8.15c-4.63-1.59-8.65-3.07-12.29-4.51a.54.54,0,0,1-.31-.7.55.55,0,0,1,.7-.3c3.63,1.43,7.64,2.9,12.25,4.49a.54.54,0,0,1,.33.69.53.53,0,0,1-.51.36A.47.47,0,0,1,871.49,312.37ZM847.2,302.6a95.29,95.29,0,0,1-11.39-6.52.54.54,0,0,1,.61-.9,95.1,95.1,0,0,0,11.25,6.45.54.54,0,0,1,.25.72.53.53,0,0,1-.48.3A.49.49,0,0,1,847.2,302.6Zm-21.45-15a42.23,42.23,0,0,1-7.46-10.8.55.55,0,0,1,.26-.72.54.54,0,0,1,.72.26,41.3,41.3,0,0,0,7.26,10.52.54.54,0,0,1-.39.91A.54.54,0,0,1,825.75,287.65Zm-11-23.42c-.11-.94-.19-1.9-.25-2.86-.07-1.39-.11-2.78-.11-4.14,0-2.08.09-4.14.27-6.14a.53.53,0,0,1,.58-.49.54.54,0,0,1,.49.59c-.17,2-.26,4-.26,6,0,1.34,0,2.71.11,4.08.05.94.13,1.88.24,2.79a.55.55,0,0,1-.47.6h-.07A.53.53,0,0,1,814.73,264.23Zm2.83-25.33a.55.55,0,0,1-.35-.68,54.07,54.07,0,0,1,5.51-11.93.54.54,0,1,1,.92.57,53,53,0,0,0-5.4,11.69.52.52,0,0,1-.51.37Zm13.33-22.14a.54.54,0,0,1,0-.76A69.63,69.63,0,0,1,841,207.63a.55.55,0,0,1,.75.15.54.54,0,0,1-.14.75,68.56,68.56,0,0,0-10,8.23.53.53,0,0,1-.76,0Zm21.24-15a.54.54,0,0,1,.25-.72,116.93,116.93,0,0,1,12.12-5,.54.54,0,0,1,.69.34.53.53,0,0,1-.33.68,114.81,114.81,0,0,0-12,5,.46.46,0,0,1-.23.06A.55.55,0,0,1,852.13,201.8ZM876.66,193a.55.55,0,0,1,.39-.65c4.1-1,8.41-1.94,12.83-2.71a.54.54,0,0,1,.18,1.06c-4.39.76-8.67,1.67-12.74,2.7h-.13A.54.54,0,0,1,876.66,193Z" style="fill:#3a67b3"/><path d="M903.17,188.83h.06c2.12-.22,4.29-.42,6.43-.59a.54.54,0,1,0-.08-1.08c-2.16.17-4.33.37-6.47.6a.53.53,0,0,0-.47.59A.54.54,0,0,0,903.17,188.83Z" style="fill:#3a67b3"/><polygon points="900.43 189.82 917.41 188.54 911.18 180.69 900.43 189.82" style="fill:#21488a"/><polygon points="916.46 191.42 937.51 181.97 910.15 184.44 916.46 191.42" style="fill:#3a67b3"/><polygon points="937.53 181.94 901.61 170.87 907.49 178.03 937.53 181.94" style="fill:#3a67b3"/><polygon points="937.51 181.97 910.11 184.53 900.43 189.82 907.47 177.91 937.51 181.97" style="fill:#335b9e"/><path d="M301.58,482.57a1.17,1.17,0,0,1-.67,1.74L297,485.46a1.18,1.18,0,0,1-1.47-1.41l1-4a1.16,1.16,0,0,1,.81-.85,1.14,1.14,0,0,1,1.14.28l3,2.83A1,1,0,0,1,301.58,482.57Zm-5.14,1.89,0,.05a.26.26,0,0,0,.24.06l3.93-1.15a.23.23,0,0,0,.17-.18.22.22,0,0,0-.07-.23l-3-2.83a.22.22,0,0,0-.24-.06.23.23,0,0,0-.17.18l-1,4A.23.23,0,0,0,296.44,484.46Z" style="fill:#d94559"/><path d="M1024.71,255.59a1.2,1.2,0,0,1,.14.89,1.18,1.18,0,0,1-.81.85l-3.93,1.14a1.17,1.17,0,0,1-1.47-1.4l1-4a1.18,1.18,0,0,1,1.95-.57l3,2.83A1.12,1.12,0,0,1,1024.71,255.59Zm-5.14,1.89,0,0a.26.26,0,0,0,.24.06l3.93-1.15a.25.25,0,0,0,.1-.42l-3-2.83a.25.25,0,0,0-.24-.06.25.25,0,0,0-.17.18l-1,4A.24.24,0,0,0,1019.57,257.48Z" style="fill:#d94559"/><path d="M307.19,257.65l1.45-1.44a.84.84,0,0,0-1.19-1.19L306,256.46,304.56,255a.84.84,0,0,0-1.19,1.19l1.45,1.44-1.44,1.44a.84.84,0,0,0,0,1.19.79.79,0,0,0,.59.25.81.81,0,0,0,.59-.25l1.45-1.44,1.44,1.44a.81.81,0,0,0,.59.25.85.85,0,0,0,.6-1.44Z" style="fill:#ffb86b"/><path d="M810.9,406.63l1.45-1.44a.84.84,0,0,0-1.19-1.19l-1.44,1.45L808.27,404a.84.84,0,1,0-1.19,1.19l1.45,1.44-1.44,1.45a.83.83,0,0,0,0,1.18.79.79,0,0,0,.59.25.81.81,0,0,0,.59-.25l1.45-1.44,1.44,1.44a.81.81,0,0,0,.59.25.83.83,0,0,0,.6-.25.85.85,0,0,0,0-1.18Z" style="fill:#ffb86b"/><path d="M114.55,412.2a3.3,3.3,0,1,1,3.3-3.3A3.31,3.31,0,0,1,114.55,412.2Zm0-5.57a2.27,2.27,0,1,0,2.26,2.27A2.27,2.27,0,0,0,114.55,406.63Z" style="fill:#4e80c2"/><path d="M788.05,196.67a3.3,3.3,0,1,1,3.3-3.3A3.31,3.31,0,0,1,788.05,196.67Zm0-5.57a2.27,2.27,0,1,0,2.26,2.27A2.27,2.27,0,0,0,788.05,191.1Z" style="fill:#4e80c2"/><path d="M1074.42,472.28a3.3,3.3,0,1,1,3.3-3.3A3.3,3.3,0,0,1,1074.42,472.28Zm0-5.57a2.27,2.27,0,1,0,2.27,2.27A2.27,2.27,0,0,0,1074.42,466.71Z" style="fill:#4e80c2"/><path d="M509.5,373.24a3.3,3.3,0,1,1,3.3-3.3A3.3,3.3,0,0,1,509.5,373.24Zm0-5.57a2.27,2.27,0,1,0,2.27,2.27A2.27,2.27,0,0,0,509.5,367.67Z" style="fill:#4e80c2"/></g></g></svg>