<svg width="32" height="32" viewBox="0 0 32 32" fill="none" xmlns="http://www.w3.org/2000/svg">
<path d="M16.8133 3.0493C16.5877 2.85326 16.2989 2.7453 16 2.7453C15.7011 2.7453 15.4123 2.85326 15.1867 3.0493C14.1732 3.92689 13.3546 5.00686 12.7835 6.21978C12.2124 7.43269 11.9015 8.75169 11.8707 10.092C11.8698 10.2164 11.904 10.3385 11.9693 10.4444C12.0347 10.5502 12.1285 10.6356 12.24 10.6906C13.0514 11.1125 13.8123 11.6251 14.508 12.2186C14.852 12.5106 15.164 12.816 15.4467 13.1266C15.74 13.4493 16.26 13.4493 16.5533 13.1266C16.836 12.816 17.148 12.5106 17.492 12.22C18.1871 11.6263 18.9476 11.1137 19.7587 10.692C19.8705 10.6371 19.9645 10.5518 20.0301 10.4459C20.0957 10.3401 20.13 10.2178 20.1293 10.0933C20.0988 8.75278 19.788 7.4335 19.2169 6.22033C18.6458 5.00716 17.827 3.92699 16.8133 3.0493V3.0493ZM16 24.0573C17.0704 22.1729 18.679 20.651 20.6197 19.6865C22.5605 18.7221 24.745 18.3591 26.8933 18.644C27.2111 18.686 27.5007 18.8482 27.7026 19.0972C27.9045 19.3462 28.0033 19.663 27.9787 19.9826C27.7828 22.5265 26.6341 24.9028 24.7621 26.6364C22.8901 28.3699 20.4328 29.3331 17.8813 29.3333H14.1187C11.5673 29.3331 9.10992 28.3699 7.23791 26.6364C5.3659 24.9028 4.21716 22.5265 4.02133 19.9826C3.99707 19.6631 4.09599 19.3464 4.2978 19.0975C4.49962 18.8486 4.78902 18.6863 5.10667 18.644C7.25505 18.3589 9.43963 18.7218 11.3804 19.6863C13.3212 20.6507 14.9298 22.1728 16 24.0573V24.0573ZM26.1947 17.24C23.7307 17.104 21.3227 17.7466 19.36 18.7933C18.1827 19.42 17.1067 20.2266 16.264 21.1546C16.2305 21.1913 16.1897 21.2207 16.1443 21.2407C16.0988 21.2608 16.0497 21.2712 16 21.2712C15.9503 21.2712 15.9012 21.2608 15.8557 21.2407C15.8103 21.2207 15.7695 21.1913 15.736 21.1546C14.8947 20.2253 13.816 19.42 12.64 18.7933C10.6827 17.7493 8.28 17.108 5.82533 17.24C4.852 15.7066 4.18533 13.9466 4.02533 12.1733C4.01034 12.0056 4.02862 11.8367 4.07914 11.6761C4.12966 11.5156 4.21142 11.3666 4.31971 11.2377C4.42801 11.1088 4.5607 11.0026 4.71017 10.9252C4.85964 10.8478 5.02293 10.8007 5.19067 10.7866C8.46267 10.5133 11.1947 11.16 13.6467 13.236C14.752 14.1733 15.4947 15.2986 16 16.2586C16.5067 15.2986 17.248 14.1733 18.3533 13.236C20.8067 11.1586 23.5573 10.5133 26.8293 10.7866C26.9971 10.8007 27.1604 10.8478 27.3098 10.9252C27.4593 11.0026 27.592 11.1088 27.7003 11.2377C27.8086 11.3666 27.8903 11.5156 27.9409 11.6761C27.9914 11.8367 28.0097 12.0056 27.9947 12.1733C27.8347 13.9466 27.168 15.708 26.1947 17.24V17.24Z" fill="#56AF24"/>
</svg>
