<svg width="32" height="32" viewBox="0 0 32 32" fill="none" xmlns="http://www.w3.org/2000/svg">
<path d="M6.39999 6.3296C6.39999 4.5776 7.83199 3.0944 9.64799 3.2064C16.7632 3.6448 23.0032 6.0384 27.8912 10.7056C29.2784 12.0288 29.0048 14.1904 27.5664 15.2944L27.176 15.5952L26.5408 14.8896L26.5296 14.8784C21.832 10.0544 15.024 7.2224 7.79359 7.2224H6.39999V6.3296V6.3296ZM6.39999 8.8208V26.4C6.39999 28.3712 8.64959 29.5008 10.232 28.3216L12.8048 26.4048V26.408C12.8048 26.8323 12.9734 27.2393 13.2734 27.5394C13.5735 27.8394 13.9804 28.008 14.4048 28.008C14.8291 28.008 15.2361 27.8394 15.5362 27.5394C15.8362 27.2393 16.0048 26.8323 16.0048 26.408V23.2048C16.0064 23.0019 16.0851 22.8072 16.2248 22.6602C16.3645 22.5131 16.5549 22.4246 16.7575 22.4126C16.96 22.4006 17.1595 22.466 17.3156 22.5955C17.4718 22.7251 17.5728 22.9091 17.5984 23.1104V24.0064C17.5984 24.4307 17.767 24.8377 18.067 25.1378C18.3671 25.4378 18.774 25.6064 19.1984 25.6064C19.6227 25.6064 20.0297 25.4378 20.3298 25.1378C20.6298 24.8377 20.7984 24.4307 20.7984 24.0064V20.4256C22.1184 19.4576 24.136 17.9232 25.9024 16.5728L25.3728 15.9824C20.9904 11.4896 14.608 8.8208 7.79199 8.8208H6.39999ZM13.1968 13.208C13.1967 13.3651 13.1656 13.5206 13.1054 13.6656C13.0452 13.8107 12.9571 13.9425 12.8459 14.0535C12.7348 14.1644 12.6029 14.2525 12.4577 14.3125C12.3126 14.3725 12.1571 14.4033 12 14.4032C11.8429 14.4031 11.6874 14.3721 11.5424 14.3118C11.3973 14.2516 11.2655 14.1635 11.1545 14.0523C11.0435 13.9412 10.9555 13.8093 10.8955 13.6641C10.8355 13.519 10.8047 13.3635 10.8048 13.2064C10.8048 12.8892 10.9308 12.585 11.1551 12.3607C11.3794 12.1364 11.6836 12.0104 12.0008 12.0104C12.318 12.0104 12.6222 12.1364 12.8465 12.3607C13.0708 12.585 13.1968 12.8892 13.1968 13.2064V13.208ZM17.9568 16.408C17.9568 16.7252 17.8308 17.0294 17.6065 17.2537C17.3822 17.478 17.078 17.604 16.7608 17.604C16.4436 17.604 16.1394 17.478 15.9151 17.2537C15.6908 17.0294 15.5648 16.7252 15.5648 16.408C15.5648 16.0908 15.6908 15.7866 15.9151 15.5623C16.1394 15.338 16.4436 15.212 16.7608 15.212C17.078 15.212 17.3822 15.338 17.6065 15.5623C17.8308 15.7866 17.9568 16.0908 17.9568 16.408V16.408ZM13.2096 20.4112C13.2096 20.7301 13.0829 21.0359 12.8574 21.2614C12.6319 21.4869 12.3261 21.6136 12.0072 21.6136C11.6883 21.6136 11.3825 21.4869 11.157 21.2614C10.9315 21.0359 10.8048 20.7301 10.8048 20.4112C10.8048 20.0923 10.9315 19.7865 11.157 19.561C11.3825 19.3355 11.6883 19.2088 12.0072 19.2088C12.3261 19.2088 12.6319 19.3355 12.8574 19.561C13.0829 19.7865 13.2096 20.0923 13.2096 20.4112V20.4112Z" fill="#FACB34"/>
</svg>
