<svg width="114" height="114" viewBox="0 0 114 114" fill="none" xmlns="http://www.w3.org/2000/svg">
<path d="M59.8975 10.8633C59.0938 10.1648 58.0648 9.78024 57 9.78024C55.9352 9.78024 54.9063 10.1648 54.1025 10.8633C50.492 13.9897 47.5757 17.8371 45.5412 22.1581C43.5067 26.4791 42.399 31.178 42.2893 35.9528C42.2863 36.3959 42.4081 36.831 42.6408 37.2081C42.8735 37.5853 43.2076 37.8893 43.605 38.0855C46.4956 39.5884 49.2062 41.4146 51.6848 43.529C52.9103 44.5693 54.0218 45.657 55.0288 46.7638C56.0738 47.9133 57.9263 47.9133 58.9713 46.7638C59.9783 45.657 61.0898 44.5693 62.3153 43.5338C64.7917 41.4188 67.5008 39.5925 70.3903 38.0903C70.7885 37.8948 71.1237 37.591 71.3572 37.2138C71.5908 36.8366 71.7133 36.4012 71.7108 35.9575C71.602 31.1819 70.4947 26.4819 68.4602 22.16C66.4256 17.8381 63.5088 13.99 59.8975 10.8633V10.8633ZM57 85.7043C60.8132 78.9911 66.5438 73.5692 73.4577 70.1334C80.3717 66.6976 88.1539 65.4043 95.8075 66.4193C96.9396 66.569 97.9713 67.1467 98.6905 68.0338C99.4096 68.9208 99.7616 70.0497 99.674 71.1883C98.9764 80.2509 94.884 88.7163 88.215 94.8922C81.5459 101.068 72.7917 104.499 63.7023 104.5H50.2978C41.2083 104.499 32.4541 101.068 25.785 94.8922C19.116 88.7163 15.0236 80.2509 14.326 71.1883C14.2396 70.0499 14.592 68.9217 15.3109 68.0349C16.0299 67.1481 17.0609 66.5701 18.1925 66.4193C25.8461 65.4037 33.6287 66.6967 40.5427 70.1325C47.4568 73.5684 53.1873 78.9906 57 85.7043V85.7043ZM93.3185 61.4175C84.5405 60.933 75.962 63.2225 68.97 66.9513C64.7758 69.1838 60.9425 72.0575 57.9405 75.3635C57.8212 75.4943 57.676 75.5987 57.514 75.6702C57.3521 75.7417 57.177 75.7786 57 75.7786C56.823 75.7786 56.6479 75.7417 56.486 75.6702C56.3241 75.5987 56.1788 75.4943 56.0595 75.3635C53.0623 72.0528 49.2195 69.1838 45.03 66.9513C38.057 63.232 29.4975 60.9473 20.7528 61.4175C17.2853 55.955 14.9103 49.685 14.3403 43.3675C14.2868 42.7702 14.352 42.1683 14.5319 41.5963C14.7119 41.0243 15.0032 40.4935 15.389 40.0344C15.7748 39.5753 16.2475 39.197 16.78 38.9213C17.3125 38.6455 17.8942 38.4777 18.4918 38.4275C30.1483 37.4538 39.881 39.7575 48.6163 47.1533C52.554 50.4925 55.1998 54.5015 57 57.9215C58.805 54.5015 61.446 50.4925 65.3838 47.1533C74.1238 39.7528 83.923 37.4538 95.5795 38.4275C96.1771 38.4777 96.7588 38.6455 97.2913 38.9213C97.8238 39.197 98.2965 39.5753 98.6823 40.0344C99.0681 40.4935 99.3593 41.0243 99.5393 41.5963C99.7193 42.1683 99.7844 42.7702 99.731 43.3675C99.161 49.685 96.786 55.9598 93.3185 61.4175V61.4175Z" fill="#56AF24"/>
</svg>
