<svg width="21" height="20" viewBox="0 0 21 20" fill="none" xmlns="http://www.w3.org/2000/svg">
<path d="M18.8632 6.18626L11.9332 0.646255C10.8632 -0.213745 9.1332 -0.213745 8.0732 0.636256L1.14319 6.18626C0.363195 6.80626 -0.136805 8.11621 0.0331948 9.09621L1.36319 17.0562C1.60319 18.4762 2.96319 19.6262 4.40319 19.6262H15.6032C17.0332 19.6262 18.4032 18.4662 18.6432 17.0562L19.9732 9.09621C20.1332 8.11621 19.6332 6.80626 18.8632 6.18626ZM10.0032 13.3162C8.6232 13.3162 7.5032 12.1962 7.5032 10.8162C7.5032 9.43621 8.6232 8.31621 10.0032 8.31621C11.3832 8.31621 12.5032 9.43621 12.5032 10.8162C12.5032 12.1962 11.3832 13.3162 10.0032 13.3162Z" fill="#0496FF"/>
</svg>
