<svg width="32" height="32" viewBox="0 0 32 32" fill="none" xmlns="http://www.w3.org/2000/svg">
<path d="M11.4375 22C10.0725 21.9675 9 20.8188 9 19.4538V17.3244C8.99992 17.2136 8.96304 17.106 8.89517 17.0184C8.8273 16.9309 8.73227 16.8683 8.625 16.8406C6.51562 16.2875 5 14.3588 5 12C5.00162 10.8231 5.41761 9.68439 6.17499 8.78358C6.93236 7.88278 7.98275 7.27744 9.14188 7.07375C9.24744 7.05624 9.34461 7.00532 9.41908 6.92848C9.49356 6.85164 9.54142 6.75294 9.55562 6.64688C9.76149 5.08344 10.5287 3.64815 11.7143 2.60842C12.8999 1.56869 14.4231 0.995422 16 0.995422C17.5769 0.995422 19.1001 1.56869 20.2857 2.60842C21.4713 3.64815 22.2385 5.08344 22.4444 6.64688C22.4586 6.75294 22.5064 6.85164 22.5809 6.92848C22.6554 7.00532 22.7526 7.05624 22.8581 7.07375C24.0916 7.28799 25.1999 7.95718 25.9638 8.94907C26.7277 9.94095 27.0918 11.1833 26.9839 12.4306C26.8761 13.678 26.3043 14.8394 25.3814 15.6855C24.4586 16.5316 23.252 17.0006 22 17C20.9147 16.9948 19.8655 16.6099 19.0344 15.9119C18.9474 15.8401 18.8386 15.8002 18.7259 15.7986C18.6132 15.797 18.5033 15.8339 18.4144 15.9031C17.7266 16.4468 16.8767 16.7449 16 16.75C15.5389 16.7465 15.0804 16.6797 14.6375 16.5513C14.5631 16.53 14.4848 16.5262 14.4087 16.5404C14.3326 16.5545 14.2608 16.5861 14.199 16.6327C14.1372 16.6793 14.0871 16.7396 14.0525 16.8089C14.018 16.8781 14 16.9545 14 17.0319V19.5C14.0001 19.8336 13.9334 20.1639 13.8039 20.4714C13.6744 20.7788 13.4846 21.0573 13.2458 21.2902C13.007 21.5232 12.724 21.706 12.4134 21.8279C12.1028 21.9498 11.771 22.0083 11.4375 22V22Z" fill="#34C4FA"/>
<path d="M16.4619 18.7312C16.3369 18.7408 16.2202 18.7969 16.1346 18.8884C16.0491 18.98 16.001 19.1003 16 19.2256V19.5C15.9987 20.4604 15.6907 21.3953 15.1208 22.1683C14.5509 22.9414 13.7489 23.5122 12.8319 23.7975C12.7655 23.8187 12.7043 23.8536 12.6521 23.9C12.6 23.9463 12.5582 24.003 12.5293 24.0664C12.5004 24.1299 12.4851 24.1987 12.4843 24.2684C12.4836 24.3381 12.4975 24.4072 12.525 24.4712L15.0819 30.3962C15.1592 30.5755 15.2874 30.7282 15.4506 30.8355C15.6137 30.9428 15.8047 31 16 31C16.1955 30.9998 16.3867 30.9422 16.5499 30.8345C16.7131 30.7267 16.8411 30.5735 16.9181 30.3937L21.5294 19.6343C21.5596 19.5639 21.5732 19.4875 21.5692 19.4109C21.5651 19.3344 21.5435 19.2598 21.5061 19.1929C21.4686 19.1261 21.4163 19.0687 21.3532 19.0253C21.29 18.9818 21.2177 18.9535 21.1419 18.9425C20.3568 18.8367 19.5969 18.5914 18.8981 18.2181C18.8299 18.1817 18.7541 18.1616 18.6768 18.1594C18.5995 18.1573 18.5227 18.1731 18.4525 18.2056C17.8246 18.4954 17.151 18.6733 16.4619 18.7312V18.7312Z" fill="#34C4FA"/>
</svg>
