<svg width="34" height="34" viewBox="0 0 34 34" fill="none" xmlns="http://www.w3.org/2000/svg">
<path d="M16.1221 1.60979C16.5011 0.914846 17.4989 0.914845 17.8779 1.60979L22.0687 9.29401C22.2125 9.55774 22.4673 9.74284 22.7625 9.79813L31.3657 11.4092C32.1437 11.5549 32.4521 12.5039 31.9083 13.0791L25.8951 19.4393C25.6888 19.6576 25.5914 19.9571 25.6301 20.255L26.7564 28.9349C26.8583 29.7199 26.051 30.3064 25.3359 29.967L17.4288 26.2136C17.1575 26.0847 16.8425 26.0847 16.5712 26.2136L8.66412 29.967C7.94902 30.3064 7.14174 29.7199 7.2436 28.9349L8.3699 20.255C8.40855 19.9571 8.31124 19.6576 8.10487 19.4393L2.09174 13.0791C1.54793 12.5039 1.85629 11.5549 2.63433 11.4092L11.2375 9.79813C11.5327 9.74284 11.7875 9.55774 11.9313 9.29401L16.1221 1.60979Z" fill="black"/>
</svg>
