<svg width="22" height="24" viewBox="0 0 22 24" fill="none" xmlns="http://www.w3.org/2000/svg">
<g clip-path="url(#clip0_82_68)">
<path d="M10.882 6.97031C11.0342 7.56094 11.0391 8.17969 10.9065 8.775C10.769 9.33281 10.4891 9.93281 10.0963 10.4109C9.3842 11.1844 8.49536 11.6766 7.41991 11.9109V22.125C7.41991 22.6219 7.25786 23.1 6.88956 23.4516C6.52125 23.8031 6.02036 24 5.45563 24C4.97929 24 4.47938 23.8031 4.11058 23.4516C3.74228 23.1 3.49134 22.6219 3.49134 22.125V11.9109C2.50232 11.7234 1.56929 11.1984 0.898484 10.425C0.500225 9.94688 0.22223 9.38906 0.0860066 8.78906C-0.0502166 8.18906 -0.041009 7.57031 0.112917 6.975L1.5963 0.583595C1.63804 0.403033 1.74853 0.243611 1.90616 0.135939C2.06331 0.0282204 2.25728 -0.0201405 2.44978 0.000123534C2.64277 0.0201673 2.82152 0.107955 2.95116 0.246517C3.08081 0.385033 3.15152 0.564377 3.15054 0.750002V7.5H4.00353L4.84277 0.558283C4.86241 0.404767 4.94 0.263486 5.06277 0.16097C5.18063 0.0585016 5.33777 0.00188135 5.45563 0.00188135C5.66188 0.00188135 5.81902 0.0585016 5.93688 0.16097C6.05965 0.263486 6.09402 0.404767 6.15786 0.558283L6.99759 7.5H7.81277V0.750002C7.81277 0.565783 7.92572 0.387564 8.0092 0.249236C8.18107 0.110908 8.35786 0.0222204 8.54938 0.000123534C8.7409 -0.0199765 8.89313 0.0290173 9.09447 0.137627C9.25161 0.246236 9.35965 0.406736 9.40384 0.588283L10.882 6.97031ZM21.9998 22.125C21.9998 22.6219 21.7936 23.1 21.4253 23.4516C21.057 23.8031 20.5561 24 20.0355 24C19.515 24 19.0141 23.8031 18.6458 23.4516C18.2775 23.1 18.0713 22.6219 18.0713 22.125V16.5H17.2463C16.8338 16.5 16.4213 16.4203 16.0382 16.2703C15.6601 16.1156 15.3114 15.8953 15.0168 15.6141C14.7271 15.3328 14.4963 15 14.2949 14.6344C14.182 14.2688 14.1034 13.875 14.1034 13.4813L14.0985 8.14688C14.1427 6.41719 14.6878 4.725 15.7043 3.29438C16.7208 1.86141 18.1596 0.752345 19.844 0.109642C20.0405 0.0187985 20.34 -0.0150077 20.5954 0.0112095C20.8507 0.0374173 21.0963 0.122814 21.3074 0.25997C21.5186 0.397127 21.6954 0.58172 21.8132 0.798283C21.936 1.01438 21.9556 1.25531 21.9998 1.5V22.125Z" fill="#292D32"/>
</g>
<defs>
<clipPath id="clip0_82_68">
<rect width="22" height="24" fill="white"/>
</clipPath>
</defs>
</svg>
