<svg width="32" height="32" viewBox="0 0 32 32" fill="none" xmlns="http://www.w3.org/2000/svg">
<g clip-path="url(#clip0_1525_204)">
<path fill-rule="evenodd" clip-rule="evenodd" d="M13.7558 0.930239L11.3452 3.33877C11.1505 3.53351 10.8866 3.6432 10.6113 3.64384H6.81824C5.06464 3.64384 3.64384 5.06464 3.64384 6.81824V10.6113C3.6433 10.8873 3.53363 11.1519 3.33877 11.3473L0.928106 13.7558C0.333018 14.3511 -0.00128174 15.1584 -0.00128174 16.0001C-0.00128174 16.8418 0.333018 17.6491 0.928106 18.2444L3.33877 20.655C3.53351 20.8497 3.6432 21.1136 3.64384 21.3889V25.182C3.64384 26.9356 5.06464 28.3564 6.81824 28.3564H10.6113C10.8873 28.3569 11.1519 28.4666 11.3473 28.6614L13.7558 31.0721C14.3511 31.6672 15.1584 32.0015 16.0001 32.0015C16.8418 32.0015 17.6491 31.6672 18.2444 31.0721L20.655 28.6614C20.8497 28.4667 21.1136 28.357 21.3889 28.3564H25.182C26.9356 28.3564 28.3564 26.9356 28.3564 25.182V21.3889C28.3569 21.1129 28.4666 20.8483 28.6614 20.6529L31.0721 18.2444C31.6672 17.6491 32.0015 16.8418 32.0015 16.0001C32.0015 15.1584 31.6672 14.3511 31.0721 13.7558L28.6614 11.3452C28.4667 11.1505 28.357 10.8866 28.3564 10.6113V6.81824C28.3564 5.06464 26.9356 3.64384 25.182 3.64384H21.3889C21.1128 3.64376 20.8481 3.53403 20.6529 3.33877L18.2444 0.928106C17.6491 0.333018 16.8418 -0.00128174 16.0001 -0.00128174C15.1584 -0.00128174 14.3511 0.333018 13.7558 0.928106V0.930239ZM9.91157 20.5782L20.5782 9.91157L22.0886 11.422L11.422 22.0886L9.91157 20.5782ZM10.6668 10.6668V12.8001H12.8001V10.6668H10.6668ZM19.2001 21.3334H21.3334V19.2001H19.2001V21.3334Z" fill="#FA8234"/>
</g>
<defs>
<clipPath id="clip0_1525_204">
<rect width="32" height="32" fill="white"/>
</clipPath>
</defs>
</svg>
